<svg xmlns="http://www.w3.org/2000/svg" width="25.765" height="25.765" viewBox="0 0 25.765 25.765"><defs><style>.a{fill:#fff;}</style></defs><g transform="translate(0)"><path class="a" d="M80.462,337.9l-1.068,1.067,2.044,2.044,3.553-3.553-1.067-1.068-2.486,2.486Zm0,0" transform="translate(-75.399 -319.459)"/><path class="a" d="M0,18.972a6.794,6.794,0,1,0,13.587,0c0-.19-.009-.379-.024-.567q.16.045.32.083a4,4,0,0,0,3.841-.838l2.135-2.135c1.307-1.307,1.3-3.6.045-5.848L24.445,6.12a3.42,3.42,0,1,0-4.8-4.8L16.1,5.862C13.85,4.6,11.558,4.6,10.252,5.906L8.117,8.041a3.974,3.974,0,0,0-.838,3.841c.025.107.052.213.083.32-.188-.016-.377-.024-.567-.024A6.8,6.8,0,0,0,0,18.972ZM20.837,2.247a1.911,1.911,0,1,1,2.68,2.682l-7.095,5.54A1.384,1.384,0,0,1,15.3,9.343Zm-5.68,4.821L13.739,8.849v.26a2.942,2.942,0,0,0,2.918,2.918h.26L18.7,10.608c.807,1.556.865,3.068.094,3.838a2.092,2.092,0,0,1-1.524.55,6.71,6.71,0,0,1-4.347-2.151,7.4,7.4,0,0,1-2.036-3.437,2.544,2.544,0,0,1,.435-2.434c.77-.77,2.282-.713,3.838.094ZM9.289,9a8.412,8.412,0,0,0,2.564,4.909,8.5,8.5,0,0,0,4.909,2.563c-.063.033-.682.969-2.54.54a7.4,7.4,0,0,1-3.437-2.036,7.4,7.4,0,0,1-2.036-3.437c-.43-1.863.507-2.477.54-2.54Zm.429,7.044a9.924,9.924,0,0,0,2.211,1.676,5.282,5.282,0,1,1-3.887-3.887,9.922,9.922,0,0,0,1.676,2.211Zm0,0" transform="translate(0 0)"/></g></svg>