<svg xmlns="http://www.w3.org/2000/svg" width="26.787" height="24.722" viewBox="0 0 26.787 24.722"><defs><style>.a,.b{fill:#fff;}.b{stroke:#fff;stroke-linecap:round;stroke-linejoin:round;}</style></defs><g transform="translate(0 2.879)"><path class="a" d="M13.9,11.063a6.407,6.407,0,1,0-8.8,0A9.509,9.509,0,0,0,0,19.489v1.689a.665.665,0,0,0,.665.665H18.341a.665.665,0,0,0,.665-.665V19.489a9.509,9.509,0,0,0-5.1-8.426Zm3.774,9.45H1.328V19.489a8.218,8.218,0,0,1,5.281-7.647.665.665,0,0,0,.127-1.179,5.077,5.077,0,1,1,5.531,0,.665.665,0,0,0,.127,1.179,8.218,8.218,0,0,1,5.281,7.647Zm0,0" transform="translate(0.001 0)"/><path class="a" d="M171.519,163.892a1.38,1.38,0,0,1-1.949,0,.665.665,0,0,0-.94.94,2.71,2.71,0,0,0,3.829,0,.665.665,0,1,0-.94-.94Zm0,0" transform="translate(-161.041 -156.511)"/><path class="b" d="M7.375,3,8.727,5.739l3.023.442L9.563,8.311l.516,3.01L7.375,9.9l-2.7,1.422.516-3.01L3,6.181l3.023-.442Z" transform="translate(14.537 -5.379)"/></g></svg>