<svg xmlns="http://www.w3.org/2000/svg" width="23.623" height="18.561" viewBox="0 0 23.623 18.561"><defs><style>.a{fill:#fff;}</style></defs><g transform="translate(0 0)"><g transform="translate(0 0)"><path class="a" d="M23.376,54.809v0h0L20,51.434a.844.844,0,0,0-1.193,1.193l1.935,1.935H16.029a5.912,5.912,0,0,0-5.905,5.905,4.223,4.223,0,0,1-4.218,4.218H.844a.844.844,0,1,0,0,1.687H5.905a5.912,5.912,0,0,0,5.905-5.905,4.223,4.223,0,0,1,4.218-4.218h4.713l-1.934,1.934A.844.844,0,1,0,19.979,59.4L20,59.377,23.375,56A.844.844,0,0,0,23.376,54.809Z" transform="translate(0 -51.197)"/></g><g transform="translate(11.816 10.124)"><path class="a" d="M250.6,259.61h0l-3.375-3.375a.844.844,0,0,0-1.193,1.193l1.935,1.935h-4.713a4.212,4.212,0,0,1-2.813-1.074.844.844,0,0,0-1.125,1.257,5.9,5.9,0,0,0,3.938,1.5h4.713l-1.934,1.934A.844.844,0,0,0,247.2,264.2l.021-.021,3.375-3.375A.844.844,0,0,0,250.6,259.61Z" transform="translate(-239.036 -255.998)"/></g><g transform="translate(0 3.365)"><path class="a" d="M9.844,120.776a5.9,5.9,0,0,0-3.938-1.5H.844a.844.844,0,0,0,0,1.687H5.905a4.212,4.212,0,0,1,2.813,1.074.844.844,0,0,0,1.125-1.257Z" transform="translate(0 -119.272)"/></g></g></svg>