<svg xmlns="http://www.w3.org/2000/svg" width="26.464" height="26.464" viewBox="0 0 26.464 26.464"><defs><style>.a{fill:#fff;stroke:#e3def7;stroke-width:0.5px;}</style></defs><g transform="translate(0.25 0.25)"><path class="a" d="M192.345,7.031h6.017a.507.507,0,0,0,.507-.507V.507A.507.507,0,0,0,198.362,0h-6.017a.507.507,0,0,0-.507.507V6.524A.507.507,0,0,0,192.345,7.031Zm.507-6.017h5v5h-5Z" transform="translate(-182.11 0)"/><path class="a" d="M172.385,324.356a.507.507,0,0,0-.717,0l-4.254,4.254a.507.507,0,0,0,0,.717l4.254,4.254a.507.507,0,0,0,.717,0l4.254-4.254a.507.507,0,0,0,0-.717Zm-.359,8.15-3.537-3.537,3.537-3.537,3.537,3.537Z" transform="translate(-158.783 -307.767)"/><path class="a" d="M195.353,169.135a3.515,3.515,0,1,0-3.515-3.515A3.519,3.519,0,0,0,195.353,169.135Zm0-6.017a2.5,2.5,0,1,1-2.5,2.5A2.5,2.5,0,0,1,195.353,163.118Z" transform="translate(-182.11 -153.884)"/><path class="a" d="M379.387,190.069a.507.507,0,0,0-.693.186,3.93,3.93,0,0,1-.626.816,3.89,3.89,0,0,1-2.768,1.146h-1.6a.507.507,0,1,0,0,1.014h1.6a4.9,4.9,0,0,0,3.485-1.443,4.95,4.95,0,0,0,.788-1.027A.507.507,0,0,0,379.387,190.069Z" transform="translate(-354.266 -180.366)"/><path class="a" d="M373.7,60.334h1.6a3.929,3.929,0,0,1,3.394,1.963.507.507,0,0,0,.879-.506A4.946,4.946,0,0,0,375.3,59.32h-1.6a.507.507,0,1,0,0,1.014Z" transform="translate(-354.266 -56.312)"/><circle class="a" cx="0.507" cy="0.507" r="0.507" transform="translate(24.949 7.43)"/><path class="a" d="M4.929,234.724H7.055a.507.507,0,1,0,0-1.014H4.929a4.929,4.929,0,0,0,0,9.858h.9l-1.165,1.165a.507.507,0,0,0,.717.717l2.031-2.031a.507.507,0,0,0,0-.717l-2.031-2.031a.507.507,0,1,0-.717.717l1.165,1.165h-.9a3.915,3.915,0,0,1,0-7.829Z" transform="translate(0 -221.859)"/><path class="a" d="M7.055,59.32H.507a.507.507,0,1,0,0,1.014H7.055a.507.507,0,1,0,0-1.014Z" transform="translate(0 -56.312)"/></g></svg>