<svg xmlns="http://www.w3.org/2000/svg" width="22.477" height="21.842" viewBox="0 0 22.477 21.842"><defs><style>.a{fill:#fff;}</style></defs><g transform="translate(0)"><path class="a" d="M13.9,11.063a6.407,6.407,0,1,0-8.8,0A9.509,9.509,0,0,0,0,19.489v1.689a.665.665,0,0,0,.665.665H18.341a.665.665,0,0,0,.665-.665V19.489a9.509,9.509,0,0,0-5.1-8.426Zm3.774,9.45H1.328V19.489a8.218,8.218,0,0,1,5.281-7.647.665.665,0,0,0,.127-1.179,5.077,5.077,0,1,1,5.531,0,.665.665,0,0,0,.127,1.179,8.218,8.218,0,0,1,5.281,7.647Zm0,0" transform="translate(0.001 0)"/><path class="a" d="M171.519,163.892a1.38,1.38,0,0,1-1.949,0,.665.665,0,0,0-.94.94,2.71,2.71,0,0,0,3.829,0,.665.665,0,1,0-.94-.94Zm0,0" transform="translate(-161.041 -156.511)"/><path class="a" d="M404.334,116.284h-1.127v-1.127a.665.665,0,1,0-1.33,0v1.127H400.75a.665.665,0,0,0,0,1.33h1.127v1.127a.665.665,0,0,0,1.33,0v-1.127h1.127a.665.665,0,0,0,0-1.33Zm0,0" transform="translate(-382.522 -109.466)"/></g></svg>