<svg xmlns="http://www.w3.org/2000/svg" width="19.007" height="21.842" viewBox="0 0 19.007 21.842"><defs><style>.a{fill:#fff;}</style></defs><path class="a" d="M13.9,11.063a6.407,6.407,0,1,0-8.8,0A9.509,9.509,0,0,0,0,19.489v1.689a.665.665,0,0,0,.665.665H18.341a.665.665,0,0,0,.665-.665V19.489a9.509,9.509,0,0,0-5.1-8.426Zm3.774,9.45H1.328V19.489a8.218,8.218,0,0,1,5.281-7.647.665.665,0,0,0,.127-1.179,5.077,5.077,0,1,1,5.531,0,.665.665,0,0,0,.127,1.179,8.218,8.218,0,0,1,5.281,7.647Zm0,0" transform="translate(0.001 0)"/></svg>