<svg xmlns="http://www.w3.org/2000/svg" width="27.16" height="20.606" viewBox="0 0 27.16 20.606"><defs><style>.a{fill:#fff;}</style></defs><g transform="translate(0)"><g transform="translate(0 0)"><path class="a" d="M26.059,63.056h-2.15V60.277a.5.5,0,0,0-.524-.524H14.1V57.5h2.15a1.075,1.075,0,0,0,1.1-1.1V51.1a1.075,1.075,0,0,0-1.1-1.1H10.906a1.075,1.075,0,0,0-1.1,1.1v5.348a1.075,1.075,0,0,0,1.1,1.1h2.15v2.2H3.775a.5.5,0,0,0-.524.524v2.779H1.1a1.075,1.075,0,0,0-1.1,1.1V69.5a1.075,1.075,0,0,0,1.1,1.1H6.449a1.075,1.075,0,0,0,1.1-1.1V64.157a1.075,1.075,0,0,0-1.1-1.1H4.3V60.8h8.756v2.255h-2.15a1.075,1.075,0,0,0-1.1,1.1V69.5a1.075,1.075,0,0,0,1.1,1.1h5.348a1.075,1.075,0,0,0,1.1-1.1V64.157a1.075,1.075,0,0,0-1.1-1.1H14.1V60.8h8.756v2.255h-2.15a1.075,1.075,0,0,0-1.1,1.1V69.5a1.075,1.075,0,0,0,1.1,1.1h5.348a1.075,1.075,0,0,0,1.1-1.1V64.157A1.108,1.108,0,0,0,26.059,63.056ZM6.5,64.157c-.052-.052,0-.052,0,0V69.5c0,.052,0,.052-.052.052H1.1c-.052,0-.052,0-.052-.052V64.157c0-.052,0-.052.052-.052Zm9.8,0c-.052-.052,0-.052,0,0V69.5c0,.052,0,.052-.052.052H10.906c-.052,0-.052,0-.052-.052V64.157c0-.052,0-.052.052-.052ZM10.854,56.4c.052.052,0,.052,0,0V51.1c0-.052,0-.052.052-.052h5.348c.052,0,.052,0,.052.052v5.348c0,.052,0,.052-.052.052ZM26.111,69.453c0,.052-.052.052,0,0l-5.4.052c-.052,0-.052,0-.052-.052v-5.3c0-.052,0-.052.052-.052h5.348c.052,0,.052,0,.052.052Z" transform="translate(0 -50)"/></g></g></svg>