<svg xmlns="http://www.w3.org/2000/svg" width="43.406" height="43.406" viewBox="0 0 43.406 43.406"><defs><style>.a{fill:none;}.b{fill:#fff;}.c{fill:#00962a;}</style></defs><g transform="translate(0 0)"><path class="a" d="M44.4,22.729a21.7,21.7,0,1,1-21.7-21.7,21.7,21.7,0,0,1,21.7,21.7Z" transform="translate(-0.992 -1.028)"/><path class="b" d="M22.7,44.434a21.7,21.7,0,1,1,0-43.406h0V44.434Z" transform="translate(-0.992 -1.028)"/><path class="c" d="M299.516,1.028a21.7,21.7,0,0,1,0,43.406V1.028Z" transform="translate(-277.812 -1.028)"/><path class="c" d="M44.526,178.866l5.974,8.95L44.008,197.2l4.313-9.388Z" transform="translate(-40.88 -165.936)"/><path class="b" d="M471.671,178.866l-5.974,8.95,6.492,9.388-4.312-9.388Z" transform="translate(-431.91 -165.936)"/><path class="b" d="M327.675,447.323l-11.961-.193L310.961,456l6.523-7.772Z" transform="translate(-288.425 -414.696)"/><path class="c" d="M58.181,447.323l11.959-.193L74.893,456l-6.523-7.772Z" transform="translate(-54.023 -414.696)"/><path class="b" d="M327.675,35.78l-11.961.2-4.753-8.87,6.523,7.77Z" transform="translate(-288.425 -25.21)"/><path class="c" d="M58.181,35.78l11.959.2,4.753-8.87-6.523,7.77Z" transform="translate(-54.023 -25.21)"/><path class="c" d="M144.957,77.457l-4.614,10.877,1.868,6.75-4.436-6.33-4.936,9.31,4.712-3.377,4.642,5.188-3.65-1.244-1.77,3.516,3.158-1.131,2.726,2.769,2.3,3.679Z" transform="translate(-123.253 -71.9)"/><path class="b" d="M299.516,77.457l4.611,10.877-1.865,6.75,4.434-6.33,4.936,9.31-4.712-3.377-4.642,5.188,3.65-1.244,1.77,3.516-3.158-1.131-2.726,2.769-2.3,3.679Z" transform="translate(-277.812 -71.9)"/></g></svg>