<?xml version="1.0" encoding="utf-8"?>
<!-- Generator: Adobe Illustrator 19.1.1, SVG Export Plug-In . SVG Version: 6.00 Build 0)  -->
<svg version="1.1" id="Layer_1" xmlns="http://www.w3.org/2000/svg" xmlns:xlink="http://www.w3.org/1999/xlink" x="0px" y="0px"
	 viewBox="-462 264.8 33.8 33.2" style="enable-background:new -462 264.8 33.8 33.2;" xml:space="preserve">
<style type="text/css">
	.st0{fill:#00AAC0;}
</style>
<g transform="translate(0 -4.011)">
	<g transform="translate(0 4.011)">
		<g transform="translate(0 0)">
			<path class="st0" d="M-428.3,291l-2-5.7c3.5-7.1,0.5-15.6-6.6-19.1c-1.9-0.9-3.9-1.4-6-1.4c-7.9-0.1-14.4,6.2-14.5,14
				c0,0,0,0,0,0c-4,3-5.3,8.3-3.2,12.8l-1.4,3.9c-0.3,1,0.2,2,1.2,2.4c0.2,0.1,0.4,0.1,0.6,0.1c0.2,0,0.4,0,0.6-0.1l3.9-1.4
				c1.4,0.7,2.9,1,4.4,1h0c3.3,0,6.4-1.6,8.4-4.3c2-0.1,4.1-0.5,5.9-1.4l5.7,2c0.2,0.1,0.5,0.1,0.7,0.1c1.2,0,2.2-1,2.2-2.2
				C-428.2,291.5-428.3,291.2-428.3,291L-428.3,291z M-451.1,295.5L-451.1,295.5c-1.4,0-2.7-0.3-3.9-1c-0.2-0.1-0.5-0.2-0.8-0.1
				l-4,1.4l1.4-4c0.1-0.3,0.1-0.6-0.1-0.8c-1.7-3.2-1.1-7.1,1.4-9.7c1,6.1,5.8,10.8,11.9,11.8C-446.8,294.7-448.9,295.5-451.1,295.5
				L-451.1,295.5z M-430.3,291.9c-0.1,0.1-0.1,0.1-0.2,0l-6.1-2.1c-0.3-0.1-0.6-0.1-0.8,0.1c-1.8,0.9-3.7,1.4-5.7,1.4h0
				c-6.7,0-12.1-5.4-12.3-12.1c-0.1-6.8,5.3-12.3,12.1-12.5c0.1,0,0.3,0,0.4,0c6.8,0.1,12.2,5.7,12.1,12.5c0,1.9-0.5,3.8-1.4,5.5
				c-0.1,0.2-0.2,0.5-0.1,0.8l2.1,6.1C-430.2,291.7-430.2,291.8-430.3,291.9z"/>
		</g>
	</g>
	<g transform="translate(11.879 12.949)">
		<g transform="translate(0 0)">
			<path class="st0" d="M-449,264.8h-12c-0.6,0-1,0.4-1,1c0,0.6,0.4,1,1,1c0,0,0,0,0,0h12c0.6,0,1-0.4,1-1
				C-448,265.2-448.5,264.8-449,264.8C-449,264.8-449,264.8-449,264.8L-449,264.8z"/>
		</g>
	</g>
	<g transform="translate(11.879 17.083)">
		<path class="st0" d="M-449,264.8h-12c-0.6,0-1,0.4-1,1c0,0.6,0.4,1,1,1c0,0,0,0,0,0h12c0.6,0,1-0.4,1-1
			C-448,265.2-448.5,264.8-449,264.8C-449,264.8-449,264.8-449,264.8L-449,264.8z"/>
	</g>
	<g transform="translate(11.879 21.217)">
		<path class="st0" d="M-453.6,264.8h-7.4c-0.6,0-1,0.4-1,1s0.4,1,1,1l0,0h7.4c0.6,0,1-0.4,1-1S-453.1,264.8-453.6,264.8
			L-453.6,264.8z"/>
	</g>
</g>
</svg>
