<svg xmlns="http://www.w3.org/2000/svg" width="33.773" height="33.244" viewBox="0 0 33.773 33.244"><defs><style>.a{fill:#fff;}</style></defs><g transform="translate(0 -4.011)"><g transform="translate(0 4.011)"><g transform="translate(0 0)"><path class="a" d="M33.651,30.253,31.69,24.545A14.281,14.281,0,0,0,19.1,4.013,14.265,14.265,0,0,0,4.609,18.09,10.395,10.395,0,0,0,1.453,30.863L.1,34.795a1.858,1.858,0,0,0,1.75,2.46,1.87,1.87,0,0,0,.608-.1L6.392,35.8a10.439,10.439,0,0,0,4.444,1h.016a10.38,10.38,0,0,0,8.393-4.268,14.31,14.31,0,0,0,5.895-1.443l5.709,1.962a2.223,2.223,0,0,0,.723.122,2.208,2.208,0,0,0,2.079-2.924Zm-22.8,4.541H10.84a8.407,8.407,0,0,1-3.9-.969,1.006,1.006,0,0,0-.8-.062L2.106,35.149l1.385-4.032a1,1,0,0,0-.062-.8A8.382,8.382,0,0,1,4.8,20.6a14.32,14.32,0,0,0,11.937,11.78A8.36,8.36,0,0,1,10.853,34.795ZM31.7,31.108a.182.182,0,0,1-.2.047l-6.111-2.1a1.005,1.005,0,0,0-.8.062,12.279,12.279,0,0,1-5.7,1.416h-.019A12.3,12.3,0,0,1,6.619,18.476,12.255,12.255,0,0,1,19.072,6.023,12.259,12.259,0,0,1,29.712,24a1,1,0,0,0-.062.8l2.1,6.111A.182.182,0,0,1,31.7,31.108Z" transform="translate(0 -4.011)"/></g></g><g transform="translate(11.879 12.949)"><g transform="translate(0 0)"><path class="a" d="M193.075,139.512H181.1a1.005,1.005,0,1,0,0,2.01h11.976a1.005,1.005,0,1,0,0-2.01Z" transform="translate(-180.094 -139.512)"/></g></g><g transform="translate(11.879 17.083)"><path class="a" d="M193.075,202.183H181.1a1.005,1.005,0,1,0,0,2.01h11.976a1.005,1.005,0,1,0,0-2.01Z" transform="translate(-180.094 -202.183)"/></g><g transform="translate(11.879 21.217)"><path class="a" d="M188.464,264.852H181.1a1.005,1.005,0,0,0,0,2.01h7.366a1.005,1.005,0,0,0,0-2.01Z" transform="translate(-180.093 -264.852)"/></g></g></svg>