<svg xmlns="http://www.w3.org/2000/svg" width="45" height="51.906" viewBox="0 0 45 51.906">
  <g id="Group_3375" data-name="Group 3375" transform="translate(-3106.686 -1724.192)">
    <g id="Group_3375-2" data-name="Group 3375" transform="translate(3106.686 1742.297)">
      <path id="Path_926" data-name="Path 926" d="M3139.232,2196.352a1.178,1.178,0,0,1-.6-.163l-13.313-7.752H3112.2c-3.038,0-5.51-2.8-5.51-6.234v-13.417c0-3.437,2.472-6.234,5.51-6.234h27.523c3.038,0,5.51,2.8,5.51,6.234V2182.2c0,3.438-2.472,6.234-5.51,6.234h-1.862l2.49,6.159a1.293,1.293,0,0,1-.343,1.464A1.176,1.176,0,0,1,3139.232,2196.352Zm-27.036-32.021c-2.057,0-3.73,2-3.73,4.454V2182.2c0,2.456,1.673,4.454,3.73,4.454H3125.8l12.311,7.169-2.9-7.169h4.5c2.057,0,3.73-2,3.73-4.454v-13.417c0-2.456-1.673-4.454-3.73-4.454Z" transform="translate(-3106.686 -2162.551)" fill="#fff"/>
    </g>
    <g id="Group_3379" data-name="Group 3379" transform="translate(3112.624 1754.184)">
      <g id="Group_3376" data-name="Group 3376" transform="translate(0 0)">
        <path id="Path_927" data-name="Path 927" d="M3252.159,2450.368a1.712,1.712,0,1,0,1.712,1.712A1.731,1.731,0,0,0,3252.159,2450.368Z" transform="translate(-3250.446 -2450.368)" fill="#fff" stroke="#fff" stroke-width="0.234"/>
      </g>
      <g id="Group_3377" data-name="Group 3377" transform="translate(8.3 0)">
        <path id="Path_928" data-name="Path 928" d="M3453.131,2450.368a1.712,1.712,0,1,0,1.712,1.712A1.731,1.731,0,0,0,3453.131,2450.368Z" transform="translate(-3451.417 -2450.368)" fill="#fff" stroke="#fff" stroke-width="0.234"/>
      </g>
      <g id="Group_3378" data-name="Group 3378" transform="translate(16.032 0)">
        <path id="Path_929" data-name="Path 929" d="M3642.048,2452.08a1.712,1.712,0,1,0-1.712,1.712A1.742,1.742,0,0,0,3642.048,2452.08Z" transform="translate(-3638.623 -2450.368)" fill="#fff" stroke="#fff" stroke-width="0.234"/>
      </g>
    </g>
    <g id="Group_3382" data-name="Group 3382" transform="translate(3133.123 1724.192)">
      <g id="Group_3380" data-name="Group 3380" transform="translate(1.426 23.604)">
        <path id="Path_930" data-name="Path 930" d="M3782.574,2295.7c-.451,1.721-.861,3.328-1.083,4.465-.087.446-.143.8-.168,1.083.221-.176.492-.422.821-.745.819-.8,1.981-2.079,3.143-3.371Z" transform="translate(-3781.323 -2295.702)" fill="none"/>
      </g>
      <g id="Group_3381" data-name="Group 3381">
        <path id="Path_931" data-name="Path 931" d="M3763.382,1724.73c-1.33-.7-3.072-.866-3.756.43l-.55,1.042-.013-.007-10.688,20.26-.024.045-.021.078c-.589,2.234-1.1,4.19-1.349,5.512-.287,1.505-.316,2.45.39,2.831l0,0a.966.966,0,0,0,.458.116c.587,0,1.252-.519,2.12-1.363.962-.935,2.327-2.446,3.883-4.18l.058-.065,10.716-20.311-.013-.007.55-1.042C3765.832,1726.776,3764.712,1725.431,3763.382,1724.73ZM3749.04,1752.6c-.329.323-.6.569-.821.745.025-.279.081-.636.168-1.083.222-1.136.632-2.744,1.083-4.465l2.713,1.431C3751.021,1750.52,3749.859,1751.795,3749.04,1752.6Zm.927-6.137,9.686-18.359,3.052,1.61-9.686,18.359Zm12.77-20.509c.085.045.168.093.248.143a2.836,2.836,0,0,1,.815.735c.25.364.16.533.127.6l-.557,1.055-3.078-1.624.557-1.055C3761.038,1725.444,3761.9,1725.513,3762.737,1725.953Z" transform="translate(-3746.792 -1724.192)" fill="#fff"/>
      </g>
    </g>
  </g>
</svg>
