<svg xmlns="http://www.w3.org/2000/svg" width="46.499" height="29.707" viewBox="0 0 46.499 29.707"><defs><style>.a{fill:#fff;stroke:#fff;stroke-width:0.5px;}</style></defs><g transform="translate(0.25 -92)"><g transform="translate(0 92.25)"><path class="a" d="M39.783,105.1a5.252,5.252,0,1,0-6.025,0,9.1,9.1,0,0,0-3.1,1.82,11.774,11.774,0,0,0-4.26-2.321,6.653,6.653,0,1,0-6.881,0,11.872,11.872,0,0,0-4.214,2.294,9.173,9.173,0,0,0-3.067-1.784,5.252,5.252,0,1,0-6.025,0A9.218,9.218,0,0,0,0,113.821v.6a.039.039,0,0,0,.036.036H11.168a12.242,12.242,0,0,0-.1,1.538v.619a4.84,4.84,0,0,0,4.842,4.842H30.017a4.84,4.84,0,0,0,4.842-4.842V116a12.241,12.241,0,0,0-.1-1.538h11.2a.039.039,0,0,0,.036-.036v-.6A9.254,9.254,0,0,0,39.783,105.1ZM32.975,100.8a3.8,3.8,0,1,1,3.868,3.8H36.7A3.79,3.79,0,0,1,32.975,100.8ZM17.739,98.9a5.2,5.2,0,1,1,5.5,5.188h-.6A5.2,5.2,0,0,1,17.739,98.9ZM5.4,100.8a3.8,3.8,0,1,1,3.868,3.8H9.12A3.8,3.8,0,0,1,5.4,100.8Zm6.025,12.2H1.474a7.777,7.777,0,0,1,7.664-6.945h.109a7.7,7.7,0,0,1,4.96,1.848A11.95,11.95,0,0,0,11.422,112.993Zm21.962,3.622A3.391,3.391,0,0,1,30,120H15.891a3.391,3.391,0,0,1-3.386-3.386V116a10.455,10.455,0,0,1,10.13-10.44c.1.009.209.009.309.009s.209,0,.309-.009A10.455,10.455,0,0,1,33.385,116Zm1.083-3.622a11.919,11.919,0,0,0-2.758-5.06,7.733,7.733,0,0,1,5.006-1.884h.109a7.777,7.777,0,0,1,7.664,6.945Z" transform="translate(0 -92.25)"/></g></g></svg>