<svg xmlns="http://www.w3.org/2000/svg" width="33.773" height="36.177" viewBox="0 0 33.773 36.177"><defs><style>.a{fill:#fff;}</style></defs><g transform="translate(-16.991)"><path class="a" d="M45.888,14.981V0H21.9V14.961l-4.913,2.979V36.177H50.764V17.94Zm1.721,3.526-1.721.979V17.463ZM43.766,2.122V20.693l-9.888,5.622-9.852-5.6V2.122ZM21.9,19.507l-1.758-1L21.9,17.442ZM19.113,34.055V20.361l14.764,8.394,14.764-8.394V34.055Z" transform="translate(0)"/><path class="a" d="M205.006,91.082a1.686,1.686,0,1,1,1.562,2.867,1.934,1.934,0,0,0-1.473,1.871v2.561h2.122v-2.41a3.808,3.808,0,1,0-4.868-3.657h2.122A1.67,1.67,0,0,1,205.006,91.082Z" transform="translate(-172.246 -82.247)"/><path class="a" d="M240.472,255.545h2.222v2.222h-2.222Z" transform="translate(-207.673 -237.469)"/></g></svg>