<svg xmlns="http://www.w3.org/2000/svg" width="37.274" height="37.274" viewBox="0 0 37.274 37.274"><defs><style>.a{fill:#fff;}</style></defs><g transform="translate(0 0)"><path class="a" d="M14.366,12.425H2.718A2.721,2.721,0,0,1,0,9.707V2.718A2.721,2.721,0,0,1,2.718,0H14.366a2.721,2.721,0,0,1,2.718,2.718V9.707A2.721,2.721,0,0,1,14.366,12.425ZM2.718,2.33a.388.388,0,0,0-.388.388V9.707a.389.389,0,0,0,.388.388H14.366a.389.389,0,0,0,.388-.388V2.718a.389.389,0,0,0-.388-.388Zm0,0"/><path class="a" d="M14.366,235.075H2.718A2.721,2.721,0,0,1,0,232.358V216.05a2.721,2.721,0,0,1,2.718-2.718H14.366a2.721,2.721,0,0,1,2.718,2.718v16.307A2.721,2.721,0,0,1,14.366,235.075ZM2.718,215.662a.389.389,0,0,0-.388.388v16.307a.388.388,0,0,0,.388.388H14.366a.389.389,0,0,0,.388-.388V216.05a.389.389,0,0,0-.388-.388Zm0,0" transform="translate(0 -197.801)"/><path class="a" d="M291.7,353.757H280.05a2.721,2.721,0,0,1-2.718-2.718V344.05a2.721,2.721,0,0,1,2.718-2.718H291.7a2.721,2.721,0,0,1,2.718,2.718v6.989A2.721,2.721,0,0,1,291.7,353.757Zm-11.648-10.1a.389.389,0,0,0-.388.388v6.989a.389.389,0,0,0,.388.388H291.7a.388.388,0,0,0,.388-.388V344.05a.389.389,0,0,0-.388-.388Zm0,0" transform="translate(-257.142 -316.483)"/><path class="a" d="M291.7,21.743H280.05a2.721,2.721,0,0,1-2.718-2.718V2.718A2.721,2.721,0,0,1,280.05,0H291.7a2.721,2.721,0,0,1,2.718,2.718V19.025A2.721,2.721,0,0,1,291.7,21.743ZM280.05,2.33a.389.389,0,0,0-.388.388V19.025a.389.389,0,0,0,.388.388H291.7a.389.389,0,0,0,.388-.388V2.718a.388.388,0,0,0-.388-.388Zm0,0" transform="translate(-257.142)"/></g></svg>