<svg xmlns="http://www.w3.org/2000/svg" width="34.273" height="31.635" viewBox="0 0 34.273 31.635"><defs><style>.a{fill:#fff;stroke:#fff;stroke-width:0.5px;}</style></defs><g transform="translate(0.25 -19.75)"><g transform="translate(0 20)"><path class="a" d="M29.947,26.338H25.726V23.826A3.83,3.83,0,0,0,21.9,20H11.873a3.83,3.83,0,0,0-3.826,3.826v2.512H3.826A3.83,3.83,0,0,0,0,30.164V47.309a3.83,3.83,0,0,0,3.826,3.826H29.947a3.83,3.83,0,0,0,3.826-3.826V30.164A3.83,3.83,0,0,0,29.947,26.338ZM11.873,21.319H21.9a2.511,2.511,0,0,1,2.418,1.847H9.455A2.511,2.511,0,0,1,11.873,21.319ZM1.319,30.164a2.509,2.509,0,0,1,2.507-2.507h10.1a.66.66,0,1,0,0-1.319H9.367V24.485h15.04v1.852H19.863a.66.66,0,1,0,0,1.319H29.947a2.509,2.509,0,0,1,2.507,2.507v2.1A5.661,5.661,0,0,1,26.8,37.922H20.061v-1.4a1.5,1.5,0,0,0-1.5-1.5H15.231a1.5,1.5,0,0,0-1.5,1.5v1.4H6.974a5.661,5.661,0,0,1-5.655-5.654Zm13.729,9.077h3.694v.944a1.847,1.847,0,0,1-3.694,0Zm0-1.319v-1.4a.183.183,0,0,1,.183-.183h3.329a.183.183,0,0,1,.183.183v1.4Zm17.406,9.387a2.509,2.509,0,0,1-2.507,2.507H3.826a2.509,2.509,0,0,1-2.507-2.507V36.344a6.969,6.969,0,0,0,5.655,2.9h6.755v.944a3.166,3.166,0,0,0,6.332,0v-.944H26.8a6.969,6.969,0,0,0,5.655-2.9Z" transform="translate(0 -20)"/><path class="a" d="M246.79,117.4a.659.659,0,1,0-.467-.193A.662.662,0,0,0,246.79,117.4Z" transform="translate(-229.895 -109.742)"/></g></g></svg>