<?xml version="1.0" encoding="utf-8"?>
<!-- Generator: Adobe Illustrator 19.1.1, SVG Export Plug-In . SVG Version: 6.00 Build 0)  -->
<svg version="1.1" id="Layer_1" xmlns="http://www.w3.org/2000/svg" xmlns:xlink="http://www.w3.org/1999/xlink" x="0px" y="0px"
	 viewBox="-462 265.4 34.3 31.6" style="enable-background:new -462 265.4 34.3 31.6;" xml:space="preserve">
<style type="text/css">
	.st0{fill:#00AAC0;stroke:#FFFFFF;stroke-width:0.5;}
</style>
<g transform="translate(0.25 -19.75)">
	<g transform="translate(0 20)">
		<path class="st0" d="M-432.1,271.7h-4.2v-2.5c0-2.1-1.7-3.8-3.8-3.8h-10c-2.1,0-3.8,1.7-3.8,3.8v2.5h-4.2c-2.1,0-3.8,1.7-3.8,3.8
			v17.1c0,2.1,1.7,3.8,3.8,3.8h26.1c2.1,0,3.8-1.7,3.8-3.8v-17.1C-428.2,273.4-429.9,271.7-432.1,271.7z M-450.1,266.7h10
			c1.1,0,2.1,0.8,2.4,1.8h-14.9C-452.2,267.4-451.3,266.7-450.1,266.7z M-460.7,275.5c0-1.4,1.1-2.5,2.5-2.5h10.1
			c0.4,0,0.7-0.3,0.7-0.6c0-0.4-0.3-0.7-0.6-0.7c0,0,0,0-0.1,0h-4.6v-1.9h15v1.9h-4.5c-0.4,0-0.7,0.3-0.7,0.6s0.3,0.7,0.6,0.7
			c0,0,0,0,0.1,0h10.1c1.4,0,2.5,1.1,2.5,2.5v2.1c0,3.1-2.5,5.7-5.7,5.7h-6.7v-1.4c0-0.8-0.7-1.5-1.5-1.5h-3.3
			c-0.8,0-1.5,0.7-1.5,1.5v1.4h-6.8c-3.1,0-5.7-2.5-5.7-5.7V275.5z M-447,284.6h3.7v0.9c0,1-0.8,1.8-1.8,1.8c-1,0-1.8-0.8-1.8-1.8
			V284.6z M-447,283.3v-1.4c0-0.1,0.1-0.2,0.2-0.2h3.3c0.1,0,0.2,0.1,0.2,0.2v1.4H-447z M-429.5,292.7c0,1.4-1.1,2.5-2.5,2.5h-26.1
			c-1.4,0-2.5-1.1-2.5-2.5v-11c1.3,1.8,3.4,2.9,5.7,2.9h6.8v0.9c0,1.7,1.4,3.2,3.2,3.2s3.2-1.4,3.2-3.2v-0.9h6.7
			c2.2,0,4.3-1.1,5.7-2.9L-429.5,292.7z"/>
		<path class="st0" d="M-445.1,273c0.4,0,0.7-0.3,0.7-0.7c0-0.4-0.3-0.7-0.7-0.7c-0.4,0-0.7,0.3-0.7,0.7c0,0.2,0.1,0.3,0.2,0.5
			C-445.4,273-445.3,273-445.1,273z"/>
	</g>
</g>
</svg>
