<?xml version="1.0" encoding="utf-8"?>
<!-- Generator: Adobe Illustrator 19.1.1, SVG Export Plug-In . SVG Version: 6.00 Build 0)  -->
<svg version="1.1" id="Layer_1" xmlns="http://www.w3.org/2000/svg" xmlns:xlink="http://www.w3.org/1999/xlink" x="0px" y="0px"
	 viewBox="-462 262.8 33.8 36.2" style="enable-background:new -462 262.8 33.8 36.2;" xml:space="preserve">
<style type="text/css">
	.st0{fill:#00AAC0;}
</style>
<g transform="translate(-16.991)">
	<path class="st0" d="M-416.1,277.8v-15h-24v15l-4.9,3V299h33.8v-18.2L-416.1,277.8z M-414.4,281.3l-1.7,1v-2L-414.4,281.3z
		 M-418.2,264.9v18.6l-9.9,5.6l-9.9-5.6v-18.6H-418.2z M-440.1,282.3l-1.8-1l1.8-1.1V282.3z M-442.9,296.9v-13.7l14.8,8.4l14.8-8.4
		v13.7H-442.9z"/>
	<path class="st0" d="M-429.2,271.7c0.7-0.6,1.7-0.6,2.4,0.1c0.6,0.7,0.6,1.7-0.1,2.4c-0.2,0.2-0.5,0.3-0.7,0.4
		c-0.9,0.2-1.5,1-1.5,1.9v2.6h2.1v-2.4c2-0.6,3.2-2.7,2.6-4.7s-2.7-3.2-4.7-2.6c-1.6,0.5-2.7,2-2.7,3.7h2.1
		C-429.8,272.4-429.6,272-429.2,271.7z"/>
	<path class="st0" d="M-429.2,280.9h2.2v2.2h-2.2V280.9z"/>
</g>
</svg>
