<svg id="Layer_1" data-name="Layer 1" xmlns="http://www.w3.org/2000/svg" viewBox="0 0 31.41 31.41"><defs><style>.cls-1{fill:#242b2e;}.cls-2{fill:#4f5b5d;}.cls-3{fill:#158e7f;}.cls-4,.cls-5{fill:none;stroke-miterlimit:10;}.cls-4{stroke:#242b2e;stroke-width:0.75px;}.cls-5{stroke:#010101;stroke-width:0.09px;}.cls-6{fill:#3ab5a4;}</style></defs><g id="sapir_logo" data-name="sapir logo"><circle class="cls-1" cx="15.85" cy="15.55" r="14.38"/><polygon class="cls-2" points="23.05 12.68 23.05 10.86 22.82 10.86 22.33 11.06 22.39 11.28 22.79 11.11 22.79 11.11 22.79 12.68 23.05 12.68"/><path class="cls-2" d="M22.71,17.85a.64.64,0,0,0,.15-.46v-.65a.67.67,0,0,0-.15-.47.65.65,0,0,0-.83,0,.66.66,0,0,0-.14.47v.65a.63.63,0,0,0,.14.46A.63.63,0,0,0,22.71,17.85ZM22,17.41v-.7c0-.25.11-.37.31-.37s.3.12.3.37v.7c0,.25-.1.38-.3.38s-.31-.13-.31-.38Z"/><path class="cls-2" d="M22.92,25.94a.54.54,0,0,0,.42-.16.63.63,0,0,0,.14-.46v-.65a.66.66,0,0,0-.14-.47.65.65,0,0,0-.83,0,.67.67,0,0,0-.15.47v.65a.64.64,0,0,0,.15.46A.53.53,0,0,0,22.92,25.94Zm-.3-1.3c0-.25.1-.37.3-.37s.31.12.31.37v.7c0,.25-.1.38-.31.38s-.3-.13-.3-.38Z"/><polygon class="cls-2" points="23.14 20.62 23.14 18.8 22.91 18.8 22.42 19 22.47 19.22 22.87 19.05 22.88 19.05 22.88 20.62 23.14 20.62"/><path class="cls-2" d="M21.34,12.71a.53.53,0,0,0,.42-.15.71.71,0,0,0,.14-.47v-.65a.7.7,0,0,0-.14-.46.63.63,0,0,0-.83,0,.66.66,0,0,0-.15.46v.65a.67.67,0,0,0,.15.47A.53.53,0,0,0,21.34,12.71ZM21,11.42c0-.25.1-.38.3-.38s.3.13.3.38v.7c0,.25-.1.38-.3.38s-.3-.13-.3-.38Z"/><path class="cls-2" d="M22,19.39a.67.67,0,0,0-.15-.47.63.63,0,0,0-.83,0,.71.71,0,0,0-.14.47V20a.7.7,0,0,0,.14.46.63.63,0,0,0,.83,0A.66.66,0,0,0,22,20Zm-.26.67c0,.25-.1.38-.3.38s-.3-.13-.3-.38v-.7c0-.25.1-.38.3-.38s.3.13.3.38Z"/><path class="cls-2" d="M21.39,15.36a.57.57,0,0,0,.42-.15.72.72,0,0,0,.14-.47v-.65a.68.68,0,0,0-.14-.46.63.63,0,0,0-.83,0,.64.64,0,0,0-.15.46v.65a.68.68,0,0,0,.15.47A.56.56,0,0,0,21.39,15.36Zm-.3-1.29c0-.26.1-.38.3-.38s.3.12.3.38v.7c0,.25-.1.37-.3.37s-.3-.12-.3-.37Z"/><path class="cls-2" d="M13.22,13.47a.53.53,0,0,0-.41.16.64.64,0,0,0-.15.46v.65a.68.68,0,0,0,.15.47.65.65,0,0,0,.83,0,.72.72,0,0,0,.14-.47v-.65a.68.68,0,0,0-.14-.46A.54.54,0,0,0,13.22,13.47Zm.3,1.3c0,.25-.1.37-.3.37s-.3-.12-.3-.37v-.7c0-.26.1-.38.3-.38s.3.12.3.38Z"/><path class="cls-2" d="M22.72,13.63a.68.68,0,0,0-.14.46v.65a.72.72,0,0,0,.14.47.66.66,0,0,0,.84,0,.72.72,0,0,0,.14-.47v-.65a.68.68,0,0,0-.14-.46A.64.64,0,0,0,22.72,13.63Zm.72.44v.7c0,.25-.1.37-.3.37s-.3-.12-.3-.37v-.7c0-.26.1-.38.3-.38S23.44,13.81,23.44,14.07Z"/><path class="cls-2" d="M24.27,10.82a.54.54,0,0,0-.42.16.65.65,0,0,0-.14.46v.65a.66.66,0,0,0,.14.47.63.63,0,0,0,.83,0,.67.67,0,0,0,.15-.47v-.65a.66.66,0,0,0-.15-.46A.53.53,0,0,0,24.27,10.82Zm.3,1.3c0,.25-.1.38-.3.38s-.31-.13-.31-.38v-.7c0-.25.11-.38.31-.38s.3.13.3.38Z"/><path class="cls-2" d="M24.46,17.85a.59.59,0,0,0,.14-.46v-.65a.61.61,0,0,0-.14-.47.65.65,0,0,0-.83,0,.61.61,0,0,0-.14.47v.65a.59.59,0,0,0,.14.46A.63.63,0,0,0,24.46,17.85Zm-.72-.44v-.7c0-.25.1-.37.31-.37s.3.12.3.37v.7c0,.25-.1.38-.3.38S23.74,17.66,23.74,17.41Z"/><polygon class="cls-2" points="24.13 13.71 24.18 13.93 24.59 13.76 24.59 13.76 24.59 15.32 24.85 15.32 24.85 13.51 24.62 13.51 24.13 13.71"/><polygon class="cls-2" points="20.27 24.33 20.27 24.33 20.27 25.9 20.53 25.9 20.53 24.08 20.3 24.08 19.82 24.28 19.87 24.5 20.27 24.33"/><path class="cls-2" d="M15.33,25.94a.53.53,0,0,0,.41-.16.64.64,0,0,0,.15-.46v-.65a.67.67,0,0,0-.15-.47.65.65,0,0,0-.83,0,.66.66,0,0,0-.14.47v.65a.63.63,0,0,0,.14.46A.54.54,0,0,0,15.33,25.94ZM15,24.64c0-.25.1-.37.31-.37s.3.12.3.37v.7c0,.25-.1.38-.3.38s-.31-.13-.31-.38Z"/><path class="cls-2" d="M16.72,23.3a.54.54,0,0,0,.42-.16.65.65,0,0,0,.14-.46V22a.66.66,0,0,0-.14-.47.63.63,0,0,0-.83,0,.67.67,0,0,0-.15.47v.65a.66.66,0,0,0,.15.46A.53.53,0,0,0,16.72,23.3Zm-.3-1.3c0-.25.1-.38.3-.38s.31.13.31.38v.7c0,.25-.11.38-.31.38s-.3-.13-.3-.38Z"/><path class="cls-2" d="M15.65,28.59a.56.56,0,0,0,.41-.15.68.68,0,0,0,.15-.47v-.65a.64.64,0,0,0-.15-.46.63.63,0,0,0-.83,0,.59.59,0,0,0-.14.46V28a.63.63,0,0,0,.14.47A.57.57,0,0,0,15.65,28.59Zm-.31-1.29c0-.26.1-.38.31-.38s.3.12.3.38V28c0,.25-.1.37-.3.37s-.31-.12-.31-.37Z"/><path class="cls-2" d="M15,23.3a.53.53,0,0,0,.41-.16.6.6,0,0,0,.14-.46V22a.61.61,0,0,0-.14-.47.63.63,0,0,0-.83,0,.61.61,0,0,0-.14.47v.65a.6.6,0,0,0,.14.46A.54.54,0,0,0,15,23.3ZM14.67,22c0-.25.1-.38.31-.38s.3.13.3.38v.7c0,.25-.1.38-.3.38s-.31-.13-.31-.38Z"/><polygon class="cls-2" points="13.85 24.33 13.85 24.33 13.85 25.9 14.11 25.9 14.11 24.08 13.88 24.08 13.39 24.28 13.45 24.5 13.85 24.33"/><path class="cls-2" d="M17.07,25.94a.54.54,0,0,0,.42-.16.59.59,0,0,0,.14-.46v-.65a.61.61,0,0,0-.14-.47.65.65,0,0,0-.83,0,.61.61,0,0,0-.14.47v.65a.59.59,0,0,0,.14.46A.53.53,0,0,0,17.07,25.94Zm-.3-1.3c0-.25.1-.37.3-.37s.31.12.31.37v.7c0,.25-.1.38-.31.38s-.3-.13-.3-.38Z"/><path class="cls-2" d="M19.14,28.59a.57.57,0,0,0,.42-.15A.72.72,0,0,0,19.7,28v-.65a.68.68,0,0,0-.14-.46.63.63,0,0,0-.83,0,.64.64,0,0,0-.15.46V28a.68.68,0,0,0,.15.47A.56.56,0,0,0,19.14,28.59Zm-.3-1.29c0-.26.1-.38.3-.38s.3.12.3.38V28c0,.25-.1.37-.3.37s-.3-.12-.3-.37Z"/><polygon class="cls-2" points="22.4 5.76 22.45 5.99 22.86 5.81 22.86 5.81 22.86 7.38 23.12 7.38 23.12 5.57 22.89 5.57 22.4 5.76"/><path class="cls-2" d="M20.21,22.68V22a.67.67,0,0,0-.15-.47.65.65,0,0,0-.83,0,.71.71,0,0,0-.14.47v.65a.7.7,0,0,0,.14.46.63.63,0,0,0,.83,0A.66.66,0,0,0,20.21,22.68Zm-.26,0c0,.25-.1.38-.3.38s-.3-.13-.3-.38V22c0-.25.1-.38.3-.38s.3.13.3.38Z"/><path class="cls-2" d="M17.39,28.59a.57.57,0,0,0,.42-.15A.67.67,0,0,0,18,28v-.65a.63.63,0,0,0-.14-.46.63.63,0,0,0-.83,0,.64.64,0,0,0-.15.46V28a.68.68,0,0,0,.15.47A.56.56,0,0,0,17.39,28.59Zm-.3-1.29c0-.26.1-.38.3-.38s.31.12.31.38V28c0,.25-.1.37-.31.37s-.3-.12-.3-.37Z"/><path class="cls-2" d="M18.82,25.94a.54.54,0,0,0,.42-.16.63.63,0,0,0,.14-.46v-.65a.66.66,0,0,0-.14-.47.65.65,0,0,0-.83,0,.67.67,0,0,0-.15.47v.65a.64.64,0,0,0,.15.46A.53.53,0,0,0,18.82,25.94Zm-.3-1.3c0-.25.1-.37.3-.37s.31.12.31.37v.7c0,.25-.11.38-.31.38s-.3-.13-.3-.38Z"/><path class="cls-2" d="M23.7,22.68V22a.61.61,0,0,0-.14-.47.65.65,0,0,0-.83,0,.67.67,0,0,0-.15.47v.65a.66.66,0,0,0,.15.46.63.63,0,0,0,.83,0A.6.6,0,0,0,23.7,22.68Zm-.25,0c0,.25-.1.38-.31.38s-.3-.13-.3-.38V22c0-.25.1-.38.3-.38s.31.13.31.38Z"/><path class="cls-2" d="M13.33,11a.66.66,0,0,0-.15.46v.65a.67.67,0,0,0,.15.47.63.63,0,0,0,.83,0,.61.61,0,0,0,.14-.47v-.65a.6.6,0,0,0-.14-.46A.63.63,0,0,0,13.33,11Zm.72.44v.7c0,.25-.1.38-.31.38s-.3-.13-.3-.38v-.7c0-.25.1-.38.3-.38s.31.13.31.38Z"/><path class="cls-2" d="M12.62,9.45a.6.6,0,0,0,.14.46.63.63,0,0,0,.83,0,.6.6,0,0,0,.14-.46V8.8a.61.61,0,0,0-.14-.47.63.63,0,0,0-.83,0,.61.61,0,0,0-.14.47Zm.25-.68c0-.25.1-.38.31-.38s.3.13.3.38v.7c0,.25-.1.38-.3.38s-.31-.13-.31-.38Z"/><path class="cls-2" d="M16.07,2.88a.54.54,0,0,0-.42.16.63.63,0,0,0-.14.46v.65a.67.67,0,0,0,.14.47.65.65,0,0,0,.83,0,.68.68,0,0,0,.15-.47V3.5A.64.64,0,0,0,16.48,3,.53.53,0,0,0,16.07,2.88Zm.3,1.3c0,.25-.1.37-.3.37s-.31-.12-.31-.37v-.7c0-.26.11-.38.31-.38s.3.12.3.38Z"/><polygon class="cls-2" points="11.81 11.06 11.86 11.28 12.27 11.11 12.27 11.11 12.27 12.68 12.53 12.68 12.53 10.86 12.3 10.86 11.81 11.06"/><path class="cls-2" d="M15,5.53a.53.53,0,0,0-.42.15.72.72,0,0,0-.14.47V6.8a.68.68,0,0,0,.14.46.64.64,0,0,0,.84,0,.68.68,0,0,0,.14-.46V6.15a.72.72,0,0,0-.14-.47A.55.55,0,0,0,15,5.53Zm.3,1.29c0,.25-.1.38-.3.38s-.3-.13-.3-.38v-.7c0-.25.1-.37.3-.37s.3.12.3.37Z"/><polygon class="cls-2" points="14.13 3.12 14.19 3.34 14.59 3.17 14.59 3.17 14.59 4.74 14.85 4.74 14.85 2.92 14.62 2.92 14.13 3.12"/><polygon class="cls-2" points="12.25 16.57 12.65 16.4 12.65 16.4 12.65 17.97 12.91 17.97 12.91 16.16 12.69 16.16 12.2 16.35 12.25 16.57"/><path class="cls-2" d="M10.4,11a.7.7,0,0,0-.14.46v.65a.71.71,0,0,0,.14.47.64.64,0,0,0,.84,0,.71.71,0,0,0,.14-.47v-.65a.7.7,0,0,0-.14-.46A.64.64,0,0,0,10.4,11Zm.72.44v.7c0,.25-.1.38-.3.38s-.3-.13-.3-.38v-.7c0-.25.1-.38.3-.38s.3.13.3.38Z"/><path class="cls-2" d="M12,2.88a.54.54,0,0,0-.42.16.59.59,0,0,0-.14.46v.65a.63.63,0,0,0,.14.47.65.65,0,0,0,.83,0,.63.63,0,0,0,.14-.47V3.5A.59.59,0,0,0,12.38,3,.53.53,0,0,0,12,2.88Zm.3,1.3c0,.25-.1.37-.3.37s-.31-.12-.31-.37v-.7c0-.26.1-.38.31-.38s.3.12.3.38Z"/><path class="cls-2" d="M10.22,2.88A.54.54,0,0,0,9.8,3a.68.68,0,0,0-.14.46v.65a.72.72,0,0,0,.14.47.65.65,0,0,0,.83,0,.68.68,0,0,0,.15-.47V3.5A.64.64,0,0,0,10.63,3,.53.53,0,0,0,10.22,2.88Zm.3,1.3c0,.25-.1.37-.3.37s-.31-.12-.31-.37v-.7c0-.26.11-.38.31-.38s.3.12.3.38Z"/><polygon class="cls-2" points="22.02 8.63 22.42 8.46 22.42 8.46 22.42 10.03 22.68 10.03 22.68 8.21 22.45 8.21 21.96 8.41 22.02 8.63"/><path class="cls-2" d="M10.93,6.15V6.8a.64.64,0,0,0,.15.46.63.63,0,0,0,.83,0,.63.63,0,0,0,.14-.46V6.15a.67.67,0,0,0-.14-.47.65.65,0,0,0-.83,0A.68.68,0,0,0,10.93,6.15Zm.26,0c0-.25.1-.37.3-.37s.31.12.31.37v.7c0,.25-.11.38-.31.38s-.3-.13-.3-.38Z"/><path class="cls-2" d="M10.87,9.45a.7.7,0,0,0,.14.46.63.63,0,0,0,.83,0A.66.66,0,0,0,12,9.45V8.8a.67.67,0,0,0-.15-.47.63.63,0,0,0-.83,0,.71.71,0,0,0-.14.47Zm.25-.68c0-.25.11-.38.31-.38s.3.13.3.38v.7c0,.25-.1.38-.3.38s-.31-.13-.31-.38Z"/><path class="cls-2" d="M20.2,8.18a.53.53,0,0,0-.41.15.67.67,0,0,0-.15.47v.65a.66.66,0,0,0,.15.46.63.63,0,0,0,.83,0,.7.7,0,0,0,.14-.46V8.8a.71.71,0,0,0-.14-.47A.53.53,0,0,0,20.2,8.18Zm.3,1.29c0,.25-.1.38-.3.38s-.3-.13-.3-.38v-.7c0-.25.1-.38.3-.38s.3.13.3.38Z"/><polygon class="cls-2" points="20.42 16.57 20.82 16.4 20.82 16.4 20.82 17.97 21.08 17.97 21.08 16.16 20.85 16.16 20.36 16.35 20.42 16.57"/><path class="cls-2" d="M19.66,5.53a.53.53,0,0,0-.41.15.68.68,0,0,0-.15.47V6.8a.64.64,0,0,0,.15.46.63.63,0,0,0,.83,0,.68.68,0,0,0,.14-.46V6.15a.72.72,0,0,0-.14-.47A.53.53,0,0,0,19.66,5.53ZM20,6.82c0,.25-.1.38-.3.38s-.3-.13-.3-.38v-.7c0-.25.1-.37.3-.37s.3.12.3.37Z"/><polygon class="cls-2" points="20.76 3.12 20.81 3.34 21.22 3.17 21.22 3.17 21.22 4.74 21.48 4.74 21.48 2.92 21.25 2.92 20.76 3.12"/><path class="cls-2" d="M21.41,5.53a.55.55,0,0,0-.42.15.72.72,0,0,0-.14.47V6.8a.68.68,0,0,0,.14.46.64.64,0,0,0,.84,0A.68.68,0,0,0,22,6.8V6.15a.72.72,0,0,0-.14-.47A.53.53,0,0,0,21.41,5.53Zm.3,1.29c0,.25-.1.38-.3.38s-.3-.13-.3-.38v-.7c0-.25.1-.37.3-.37s.3.12.3.37Z"/><polygon class="cls-2" points="15.98 5.76 16.03 5.99 16.43 5.81 16.44 5.81 16.44 7.38 16.7 7.38 16.7 5.57 16.47 5.57 15.98 5.76"/><path class="cls-2" d="M16.72,8.8v.65a.65.65,0,0,0,.14.46.63.63,0,0,0,.83,0,.66.66,0,0,0,.15-.46V8.8a.67.67,0,0,0-.15-.47.63.63,0,0,0-.83,0A.66.66,0,0,0,16.72,8.8Zm.25,0c0-.25.11-.38.31-.38s.3.13.3.38v.7c0,.25-.1.38-.3.38S17,9.72,17,9.47Z"/><path class="cls-2" d="M16.68,12.09a.71.71,0,0,0,.14.47.64.64,0,0,0,.84,0,.71.71,0,0,0,.14-.47v-.65a.7.7,0,0,0-.14-.46.64.64,0,0,0-.84,0,.7.7,0,0,0-.14.46Zm.26-.67c0-.25.1-.38.3-.38s.3.13.3.38v.7c0,.25-.1.38-.3.38s-.3-.13-.3-.38Z"/><path class="cls-2" d="M17.91,5.53a.53.53,0,0,0-.41.15.68.68,0,0,0-.15.47V6.8a.64.64,0,0,0,.15.46.63.63,0,0,0,.83,0,.63.63,0,0,0,.14-.46V6.15a.67.67,0,0,0-.14-.47A.53.53,0,0,0,17.91,5.53Zm.31,1.29c0,.25-.1.38-.31.38s-.3-.13-.3-.38v-.7c0-.25.1-.37.3-.37s.31.12.31.37Z"/><polygon class="cls-2" points="17.06 3.12 17.11 3.34 17.51 3.17 17.52 3.17 17.52 4.74 17.78 4.74 17.78 2.92 17.55 2.92 17.06 3.12"/><path class="cls-2" d="M19,2.88a.53.53,0,0,0-.41.16.64.64,0,0,0-.15.46v.65a.68.68,0,0,0,.15.47.65.65,0,0,0,.83,0,.72.72,0,0,0,.14-.47V3.5A.68.68,0,0,0,19.41,3,.54.54,0,0,0,19,2.88Zm.3,1.3c0,.25-.1.37-.3.37s-.3-.12-.3-.37v-.7c0-.26.1-.38.3-.38s.3.12.3.38Z"/><polygon class="cls-2" points="14.88 10.03 14.88 8.21 14.66 8.21 14.17 8.41 14.22 8.63 14.62 8.46 14.63 8.46 14.63 10.03 14.88 10.03"/><polygon class="cls-2" points="10.26 23.26 10.26 21.44 10.04 21.44 9.55 21.64 9.6 21.86 10 21.69 10.01 21.69 10.01 23.26 10.26 23.26"/><path class="cls-2" d="M8.35,25.32a.59.59,0,0,0,.14.46.63.63,0,0,0,.83,0,.59.59,0,0,0,.14-.46v-.65a.61.61,0,0,0-.14-.47.65.65,0,0,0-.83,0,.61.61,0,0,0-.14.47Zm.25-.68c0-.25.1-.37.31-.37s.3.12.3.37v.7c0,.25-.1.38-.3.38s-.31-.13-.31-.38Z"/><polygon class="cls-2" points="9.2 17.97 9.2 16.16 8.98 16.16 8.49 16.35 8.54 16.57 8.94 16.4 8.95 16.4 8.95 17.97 9.2 17.97"/><polygon class="cls-2" points="9.54 13.71 9.59 13.93 9.99 13.76 10 13.76 10 15.32 10.26 15.32 10.26 13.51 10.03 13.51 9.54 13.71"/><polygon class="cls-2" points="20.85 28.55 20.85 26.74 20.62 26.74 20.13 26.94 20.18 27.16 20.59 26.98 20.59 26.98 20.59 28.55 20.85 28.55"/><polygon class="cls-2" points="18.43 23.26 18.43 21.44 18.2 21.44 17.71 21.64 17.77 21.86 18.17 21.69 18.18 21.69 18.18 23.26 18.43 23.26"/><path class="cls-2" d="M11.47,13.47a.53.53,0,0,0-.41.16.64.64,0,0,0-.15.46v.65a.68.68,0,0,0,.15.47.65.65,0,0,0,.83,0,.63.63,0,0,0,.14-.47v-.65a.59.59,0,0,0-.14-.46A.54.54,0,0,0,11.47,13.47Zm.31,1.3c0,.25-.1.37-.31.37s-.3-.12-.3-.37v-.7c0-.26.1-.38.3-.38s.31.12.31.38Z"/><path class="cls-2" d="M9.72,20v-.65a.67.67,0,0,0-.15-.47.63.63,0,0,0-.83,0,.71.71,0,0,0-.14.47V20a.7.7,0,0,0,.14.46.63.63,0,0,0,.83,0A.66.66,0,0,0,9.72,20Zm-.26,0c0,.25-.1.38-.3.38s-.31-.13-.31-.38v-.7c0-.25.11-.38.31-.38s.3.13.3.38Z"/><path class="cls-2" d="M10.49,18.92a.61.61,0,0,0-.14.47V20a.6.6,0,0,0,.14.46.63.63,0,0,0,.83,0,.6.6,0,0,0,.14-.46v-.65a.61.61,0,0,0-.14-.47.63.63,0,0,0-.83,0Zm.72.44v.7c0,.25-.1.38-.3.38s-.31-.13-.31-.38v-.7c0-.25.1-.38.31-.38s.3.13.3.38Z"/><path class="cls-2" d="M10.42,16.12a.55.55,0,0,0-.42.15.71.71,0,0,0-.14.47v.65a.68.68,0,0,0,.14.46.64.64,0,0,0,.84,0,.68.68,0,0,0,.14-.46v-.65a.71.71,0,0,0-.14-.47A.55.55,0,0,0,10.42,16.12Zm.3,1.29c0,.25-.1.38-.3.38s-.3-.13-.3-.38v-.7c0-.25.1-.37.3-.37s.3.12.3.37Z"/><polygon class="cls-2" points="12.61 20.62 12.61 18.8 12.39 18.8 11.9 19 11.95 19.22 12.35 19.05 12.36 19.05 12.36 20.62 12.61 20.62"/><path class="cls-2" d="M22,22.68V22a.67.67,0,0,0-.15-.47.65.65,0,0,0-.83,0,.66.66,0,0,0-.14.47v.65a.65.65,0,0,0,.14.46.63.63,0,0,0,.83,0A.66.66,0,0,0,22,22.68Zm-.26,0c0,.25-.1.38-.3.38s-.31-.13-.31-.38V22c0-.25.1-.38.31-.38s.3.13.3.38Z"/><polygon class="cls-2" points="14.43 28.55 14.43 26.74 14.2 26.74 13.71 26.94 13.76 27.16 14.17 26.98 14.17 26.98 14.17 28.55 14.43 28.55"/><path class="cls-2" d="M12.68,6.15V6.8a.64.64,0,0,0,.15.46.63.63,0,0,0,.83,0,.68.68,0,0,0,.14-.46V6.15a.72.72,0,0,0-.14-.47.65.65,0,0,0-.83,0A.68.68,0,0,0,12.68,6.15Zm.26,0c0-.25.1-.37.3-.37s.3.12.3.37v.7c0,.25-.1.38-.3.38s-.3-.13-.3-.38Z"/><path class="cls-2" d="M13.41,18.92a.71.71,0,0,0-.14.47V20a.7.7,0,0,0,.14.46.64.64,0,0,0,.84,0,.7.7,0,0,0,.14-.46v-.65a.71.71,0,0,0-.14-.47.64.64,0,0,0-.84,0Zm.72.44v.7c0,.25-.1.38-.3.38s-.3-.13-.3-.38v-.7c0-.25.1-.38.3-.38s.3.13.3.38Z"/><polygon class="cls-2" points="13.67 4.74 13.67 2.92 13.45 2.92 12.96 3.12 13.01 3.34 13.41 3.17 13.42 3.17 13.42 4.74 13.67 4.74"/><path class="cls-2" d="M22.14,3.5v.65a.63.63,0,0,0,.14.47.65.65,0,0,0,.83,0,.68.68,0,0,0,.15-.47V3.5a.87.87,0,0,0-.06-.32c-.17-.11-.34-.2-.52-.3a.51.51,0,0,0-.4.16A.59.59,0,0,0,22.14,3.5Zm.25,0c0-.26.1-.38.31-.38s.3.12.3.38v.7c0,.25-.1.37-.3.37s-.31-.12-.31-.37Z"/><path class="cls-2" d="M21.8,26.74l-.49.2.05.22.4-.18h0v1.57H22V26.74Z"/><path class="cls-2" d="M13.83,29.39l-.49.2,0,.15.13,0,.29-.12h0v.17l.26,0v-.45Z"/><path class="cls-2" d="M24.91,19.39a.71.71,0,0,0-.14-.47.63.63,0,0,0-.83,0,.67.67,0,0,0-.15.47V20a.66.66,0,0,0,.15.46.63.63,0,0,0,.83,0,.7.7,0,0,0,.14-.46Zm-.25.67c0,.25-.11.38-.31.38s-.3-.13-.3-.38v-.7c0-.25.1-.38.3-.38s.31.13.31.38Z"/><polygon class="cls-2" points="24.85 21.44 24.63 21.44 24.14 21.64 24.19 21.86 24.59 21.69 24.6 21.69 24.6 23.26 24.85 23.26 24.85 21.44"/><polygon class="cls-2" points="24.3 7.38 24.3 5.57 24.07 5.57 23.58 5.76 23.63 5.99 24.03 5.81 24.04 5.81 24.04 7.38 24.3 7.38"/><polygon class="cls-2" points="24.63 25.9 24.63 24.08 24.41 24.08 23.92 24.28 23.97 24.5 24.37 24.33 24.38 24.33 24.38 25.9 24.63 25.9"/><path class="cls-2" d="M23.34,8.8v.65a.65.65,0,0,0,.14.46.63.63,0,0,0,.83,0,.66.66,0,0,0,.15-.46V8.8a.67.67,0,0,0-.15-.47.63.63,0,0,0-.83,0A.66.66,0,0,0,23.34,8.8Zm.25,0c0-.25.1-.38.31-.38s.3.13.3.38v.7c0,.25-.1.38-.3.38s-.31-.13-.31-.38Z"/><polygon class="cls-2" points="21.71 25.9 21.71 24.08 21.48 24.08 20.99 24.28 21.04 24.5 21.45 24.33 21.45 24.33 21.45 25.9 21.71 25.9"/><path class="cls-2" d="M10.65,25.94a.54.54,0,0,0,.42-.16.63.63,0,0,0,.14-.46v-.65a.66.66,0,0,0-.14-.47.65.65,0,0,0-.83,0,.67.67,0,0,0-.15.47v.65a.64.64,0,0,0,.15.46A.53.53,0,0,0,10.65,25.94Zm-.3-1.3c0-.25.1-.37.3-.37s.31.12.31.37v.7c0,.25-.1.38-.31.38s-.3-.13-.3-.38Z"/><polygon class="cls-2" points="17.71 13.71 17.76 13.93 18.16 13.76 18.17 13.76 18.17 15.32 18.43 15.32 18.43 13.51 18.2 13.51 17.71 13.71"/><path class="cls-2" d="M16.91,18.92a.66.66,0,0,0-.14.47V20a.65.65,0,0,0,.14.46.63.63,0,0,0,.83,0,.66.66,0,0,0,.15-.46v-.65a.67.67,0,0,0-.15-.47.63.63,0,0,0-.83,0Zm.72.44v.7c0,.25-.1.38-.3.38s-.31-.13-.31-.38v-.7c0-.25.1-.38.31-.38s.3.13.3.38Z"/><polygon class="cls-2" points="18.27 8.41 18.32 8.63 18.72 8.46 18.73 8.46 18.73 10.03 18.99 10.03 18.99 8.21 18.76 8.21 18.27 8.41"/><polygon class="cls-2" points="18.28 11.28 18.69 11.11 18.69 11.11 18.69 12.68 18.95 12.68 18.95 10.86 18.72 10.86 18.23 11.06 18.28 11.28"/><path class="cls-2" d="M16.72,13.47a.54.54,0,0,0-.42.16.68.68,0,0,0-.14.46v.65a.72.72,0,0,0,.14.47.65.65,0,0,0,.83,0,.68.68,0,0,0,.15-.47v-.65a.64.64,0,0,0-.15-.46A.52.52,0,0,0,16.72,13.47Zm.3,1.3c0,.25-.1.37-.3.37s-.3-.12-.3-.37v-.7c0-.26.1-.38.3-.38s.3.12.3.38Z"/><path class="cls-2" d="M15.46,16.27a.61.61,0,0,0-.14.47v.65a.59.59,0,0,0,.14.46.63.63,0,0,0,.83,0,.64.64,0,0,0,.15-.46v-.65a.67.67,0,0,0-.15-.47A.65.65,0,0,0,15.46,16.27Zm.72.44v.7c0,.25-.1.38-.3.38s-.31-.13-.31-.38v-.7c0-.25.1-.37.31-.37s.3.12.3.37Z"/><polygon class="cls-2" points="19.04 20.62 19.04 18.8 18.81 18.8 18.32 19 18.37 19.22 18.77 19.05 18.78 19.05 18.78 20.62 19.04 20.62"/><path class="cls-2" d="M13.71,16.27a.71.71,0,0,0-.14.47v.65a.68.68,0,0,0,.14.46.63.63,0,0,0,.83,0,.64.64,0,0,0,.15-.46v-.65a.67.67,0,0,0-.15-.47A.65.65,0,0,0,13.71,16.27Zm.72.44v.7c0,.25-.1.38-.3.38s-.3-.13-.3-.38v-.7c0-.25.1-.37.3-.37S14.43,16.46,14.43,16.71Z"/><path class="cls-2" d="M14.93,11.44v.65a.67.67,0,0,0,.15.47.63.63,0,0,0,.83,0,.71.71,0,0,0,.14-.47v-.65a.7.7,0,0,0-.14-.46.63.63,0,0,0-.83,0A.66.66,0,0,0,14.93,11.44Zm.26,0c0-.25.1-.38.3-.38s.31.13.31.38v.7c0,.25-.11.38-.31.38s-.3-.13-.3-.38Z"/><polygon class="cls-2" points="15.34 8.41 15.39 8.63 15.8 8.46 15.8 8.46 15.8 10.03 16.06 10.03 16.06 8.21 15.83 8.21 15.34 8.41"/><path class="cls-2" d="M15.16,18.92a.71.71,0,0,0-.14.47V20a.7.7,0,0,0,.14.46.63.63,0,0,0,.83,0,.66.66,0,0,0,.15-.46v-.65a.67.67,0,0,0-.15-.47.63.63,0,0,0-.83,0Zm.72.44v.7c0,.25-.1.38-.3.38s-.3-.13-.3-.38v-.7c0-.25.1-.38.3-.38s.3.13.3.38Z"/><path class="cls-2" d="M17.21,16.27a.67.67,0,0,0-.15.47v.65a.64.64,0,0,0,.15.46.63.63,0,0,0,.83,0,.63.63,0,0,0,.14-.46v-.65a.66.66,0,0,0-.14-.47A.65.65,0,0,0,17.21,16.27Zm.72.44v.7c0,.25-.1.38-.31.38s-.3-.13-.3-.38v-.7c0-.25.1-.37.3-.37s.31.12.31.37Z"/><path class="cls-2" d="M13.79,22.68V22a.67.67,0,0,0-.15-.47.65.65,0,0,0-.83,0,.66.66,0,0,0-.14.47v.65a.65.65,0,0,0,.14.46.63.63,0,0,0,.83,0A.66.66,0,0,0,13.79,22.68Zm-.26,0c0,.25-.1.38-.3.38s-.31-.13-.31-.38V22c0-.25.11-.38.31-.38s.3.13.3.38Z"/><path class="cls-2" d="M12.4,25.94a.54.54,0,0,0,.42-.16.68.68,0,0,0,.14-.46v-.65a.71.71,0,0,0-.14-.47.65.65,0,0,0-.83,0,.67.67,0,0,0-.15.47v.65a.64.64,0,0,0,.15.46A.53.53,0,0,0,12.4,25.94Zm-.3-1.3c0-.25.1-.37.3-.37s.3.12.3.37v.7c0,.25-.1.38-.3.38s-.3-.13-.3-.38Z"/><path class="cls-2" d="M12.72,28.59a.57.57,0,0,0,.42-.15.72.72,0,0,0,.14-.47v-.65a.68.68,0,0,0-.14-.46.64.64,0,0,0-.84,0,.68.68,0,0,0-.14.46V28a.72.72,0,0,0,.14.47A.59.59,0,0,0,12.72,28.59Zm-.3-1.29c0-.26.1-.38.3-.38s.3.12.3.38V28c0,.25-.1.37-.3.37s-.3-.12-.3-.37Z"/><path class="cls-2" d="M18.81,16.74v.65a.64.64,0,0,0,.15.46.63.63,0,0,0,.83,0,.68.68,0,0,0,.14-.46v-.65a.71.71,0,0,0-.14-.47.65.65,0,0,0-.83,0A.67.67,0,0,0,18.81,16.74Zm.26,0c0-.25.1-.37.3-.37s.3.12.3.37v.7c0,.25-.1.38-.3.38s-.3-.13-.3-.38Z"/><path class="cls-2" d="M12,22.68V22a.67.67,0,0,0-.15-.47.65.65,0,0,0-.83,0,.71.71,0,0,0-.14.47v.65a.7.7,0,0,0,.14.46.63.63,0,0,0,.83,0A.66.66,0,0,0,12,22.68Zm-.26,0c0,.25-.1.38-.3.38s-.3-.13-.3-.38V22c0-.25.1-.38.3-.38s.3.13.3.38Z"/><path class="cls-2" d="M11,28.59a.57.57,0,0,0,.42-.15.72.72,0,0,0,.14-.47v-.65a.68.68,0,0,0-.14-.46.63.63,0,0,0-.83,0,.64.64,0,0,0-.15.46V28a.68.68,0,0,0,.15.47A.56.56,0,0,0,11,28.59Zm-.3-1.29c0-.26.1-.38.3-.38s.31.12.31.38V28c0,.25-.11.37-.31.37s-.3-.12-.3-.37Z"/><path class="cls-2" d="M9.19,6.15V6.8a.59.59,0,0,0,.14.46.63.63,0,0,0,.83,0,.59.59,0,0,0,.14-.46V6.15a.63.63,0,0,0-.14-.47.65.65,0,0,0-.83,0A.63.63,0,0,0,9.19,6.15Zm.25,0c0-.25.1-.37.3-.37s.31.12.31.37v.7c0,.25-.1.38-.31.38s-.3-.13-.3-.38Z"/><path class="cls-2" d="M19.08,14.09v.65a.68.68,0,0,0,.15.47.65.65,0,0,0,.83,0,.67.67,0,0,0,.14-.47v-.65a.63.63,0,0,0-.14-.46.63.63,0,0,0-.83,0A.64.64,0,0,0,19.08,14.09Zm.26,0c0-.26.1-.38.3-.38s.31.12.31.38v.7c0,.25-.1.37-.31.37s-.3-.12-.3-.37Z"/><polygon class="cls-2" points="20.21 20.62 20.21 18.8 19.98 18.8 19.5 19 19.55 19.22 19.95 19.05 19.95 19.05 19.95 20.62 20.21 20.62"/><path class="cls-2" d="M15,15.36a.57.57,0,0,0,.42-.15.72.72,0,0,0,.14-.47v-.65a.68.68,0,0,0-.14-.46.64.64,0,0,0-.84,0,.68.68,0,0,0-.14.46v.65a.72.72,0,0,0,.14.47A.59.59,0,0,0,15,15.36Zm-.3-1.29c0-.26.1-.38.3-.38s.3.12.3.38v.7c0,.25-.1.37-.3.37s-.3-.12-.3-.37Z"/><polygon class="cls-2" points="20.13 12.68 20.13 10.86 19.9 10.86 19.41 11.06 19.46 11.28 19.86 11.11 19.87 11.11 19.87 12.68 20.13 12.68"/><path class="cls-2" d="M7.25,4.73V4L7,4.17v.56Z"/><path class="cls-2" d="M5.58,10.82a.54.54,0,0,0-.42.16.6.6,0,0,0-.14.46v.65a.61.61,0,0,0,.14.47.53.53,0,0,0,.42.15A.53.53,0,0,0,6,12.56a.61.61,0,0,0,.14-.47v-.65A.6.6,0,0,0,6,11,.53.53,0,0,0,5.58,10.82Zm.3,1.3c0,.25-.1.38-.3.38s-.31-.13-.31-.38v-.7c0-.25.1-.38.31-.38s.3.13.3.38Z"/><polygon class="cls-2" points="26.03 23.26 26.03 21.44 25.8 21.44 25.31 21.64 25.36 21.86 25.77 21.69 25.77 21.69 25.77 23.26 26.03 23.26"/><path class="cls-2" d="M4.85,23.3a.54.54,0,0,0,.42-.16.65.65,0,0,0,.14-.46V22a.66.66,0,0,0-.14-.47.53.53,0,0,0-.42-.15.53.53,0,0,0-.41.15.67.67,0,0,0-.15.47v.65a.66.66,0,0,0,.15.46A.53.53,0,0,0,4.85,23.3ZM4.55,22c0-.25.1-.38.3-.38s.31.13.31.38v.7c0,.25-.1.38-.31.38s-.3-.13-.3-.38Z"/><path class="cls-2" d="M28.73,21.44l-.49.2.05.22.4-.17h0V22c.09-.18.17-.36.25-.54v0Z"/><polygon class="cls-2" points="3.63 15.32 3.63 13.51 3.4 13.51 2.91 13.71 2.96 13.93 3.36 13.76 3.37 13.76 3.37 15.32 3.63 15.32"/><path class="cls-2" d="M26.26,24.2a.65.65,0,0,0-.83,0,.71.71,0,0,0-.14.47v.65a.68.68,0,0,0,.14.46.51.51,0,0,0,.37.15c.21-.2.41-.41.61-.62v-.64A.67.67,0,0,0,26.26,24.2Zm-.11,1.14c0,.25-.1.38-.3.38s-.3-.13-.3-.38v-.7c0-.25.1-.37.3-.37s.3.12.3.37Z"/><polygon class="cls-2" points="5.1 17.97 5.1 16.16 4.88 16.16 4.39 16.35 4.44 16.57 4.84 16.4 4.84 16.4 4.84 17.97 5.1 17.97"/><polygon class="cls-2" points="3.64 11.06 3.69 11.28 4.1 11.11 4.1 11.11 4.1 12.68 4.36 12.68 4.36 10.86 4.13 10.86 3.64 11.06"/><path class="cls-2" d="M26.35,17.39v-.65a.66.66,0,0,0-.14-.47.65.65,0,0,0-.83,0,.67.67,0,0,0-.15.47v.65a.64.64,0,0,0,.15.46.63.63,0,0,0,.83,0A.63.63,0,0,0,26.35,17.39Zm-.25,0c0,.25-.11.38-.31.38s-.3-.13-.3-.38v-.7c0-.25.1-.37.3-.37s.31.12.31.37Z"/><path class="cls-2" d="M17,29.35a.53.53,0,0,0-.41.16.66.66,0,0,0-.15.42h.26c0-.23.11-.35.3-.35s.28.1.3.3l.25,0a.57.57,0,0,0-.13-.33A.54.54,0,0,0,17,29.35Z"/><path class="cls-2" d="M2.83,17.39a.64.64,0,0,0,.15.46.53.53,0,0,0,.41.16.54.54,0,0,0,.42-.16A.63.63,0,0,0,4,17.39v-.65a.66.66,0,0,0-.14-.47.53.53,0,0,0-.42-.15.53.53,0,0,0-.41.15.67.67,0,0,0-.15.47Zm.26-.68c0-.25.1-.37.3-.37s.31.12.31.37v.7c0,.25-.1.38-.31.38s-.3-.13-.3-.38Z"/><polygon class="cls-2" points="26.84 20.62 26.84 18.8 26.62 18.8 26.13 19 26.18 19.22 26.58 19.05 26.59 19.05 26.59 20.62 26.84 20.62"/><path class="cls-2" d="M29.61,14.09v.65a.67.67,0,0,0,.14.47.57.57,0,0,0,.42.15h0v-.22h0c-.21,0-.31-.12-.31-.37v-.7c0-.23.08-.35.24-.38l0-.21a.5.5,0,0,0-.32.15A.63.63,0,0,0,29.61,14.09Z"/><polygon class="cls-2" points="6.55 15.32 6.55 13.51 6.32 13.51 5.83 13.71 5.88 13.93 6.29 13.76 6.29 13.76 6.29 15.32 6.55 15.32"/><path class="cls-2" d="M29.51,19.36c0-.25.1-.38.3-.38,0-.07,0-.14.05-.21h-.05a.53.53,0,0,0-.42.15.71.71,0,0,0-.14.47V20a.7.7,0,0,0,.11.42l.15-.42Z"/><path class="cls-2" d="M18.77,29.35a.56.56,0,0,0-.42.16.7.7,0,0,0-.11.23l.29,0a.25.25,0,0,1,.24-.12.29.29,0,0,1,.16,0l.28-.06,0,0A.56.56,0,0,0,18.77,29.35Z"/><polygon class="cls-2" points="6.28 17.97 6.28 16.16 6.05 16.16 5.56 16.35 5.61 16.57 6.02 16.4 6.02 16.4 6.02 17.97 6.28 17.97"/><path class="cls-2" d="M23.66,26.86a.63.63,0,0,0-.83,0,.64.64,0,0,0-.15.46V28a.91.91,0,0,0,0,.23l.23-.14V27.3c0-.26.1-.38.3-.38s.31.12.31.38v.4l.25-.17v-.21A.63.63,0,0,0,23.66,26.86Z"/><path class="cls-2" d="M4.43,13.63a.64.64,0,0,0-.15.46v.65a.68.68,0,0,0,.15.47.56.56,0,0,0,.41.15.57.57,0,0,0,.42-.15.72.72,0,0,0,.14-.47v-.65a.68.68,0,0,0-.14-.46.54.54,0,0,0-.42-.16A.53.53,0,0,0,4.43,13.63Zm.71.44v.7c0,.25-.1.37-.3.37s-.3-.12-.3-.37v-.7c0-.26.1-.38.3-.38S5.14,13.81,5.14,14.07Z"/><polygon class="cls-2" points="28.95 15.32 28.95 13.51 28.72 13.51 28.23 13.71 28.29 13.93 28.69 13.76 28.69 13.76 28.69 15.32 28.95 15.32"/><path class="cls-2" d="M25.51,5.53a.53.53,0,0,0-.41.15.68.68,0,0,0-.15.47V6.8a.64.64,0,0,0,.15.46.63.63,0,0,0,.83,0,.68.68,0,0,0,.14-.46V6.15a.72.72,0,0,0-.14-.47A.53.53,0,0,0,25.51,5.53Zm.3,1.29c0,.25-.1.38-.3.38s-.3-.13-.3-.38v-.7c0-.25.1-.37.3-.37s.3.12.3.37Z"/><path class="cls-2" d="M3.56,8.77v.7c0,.25-.1.38-.3.38S3,9.72,3,9.47v-.4c-.09.17-.17.34-.25.52a.54.54,0,0,0,.13.32.54.54,0,0,0,.42.16.53.53,0,0,0,.41-.16.66.66,0,0,0,.15-.46V8.8a.67.67,0,0,0-.15-.47.41.41,0,0,0-.24-.13,1.28,1.28,0,0,0-.11.2C3.48,8.42,3.56,8.55,3.56,8.77Z"/><path class="cls-2" d="M28,10.82a.53.53,0,0,0-.41.16.66.66,0,0,0-.15.46v.65a.67.67,0,0,0,.15.47.63.63,0,0,0,.83,0,.71.71,0,0,0,.14-.47v-.65a.7.7,0,0,0-.14-.46A.54.54,0,0,0,28,10.82Zm.3,1.3c0,.25-.1.38-.3.38s-.3-.13-.3-.38v-.7c0-.25.1-.38.3-.38s.3.13.3.38Z"/><path class="cls-2" d="M2.17,11.42v.7c0,.25-.1.38-.3.38l-.12,0c0,.07,0,.14-.05.21a.5.5,0,0,0,.17,0,.53.53,0,0,0,.41-.15.67.67,0,0,0,.15-.47v-.65A.66.66,0,0,0,2.28,11l-.09-.08-.09.25A.44.44,0,0,1,2.17,11.42Z"/><path class="cls-2" d="M2.06,17.85a.59.59,0,0,0,.14-.46v-.65a.61.61,0,0,0-.14-.47.53.53,0,0,0-.41-.15.78.78,0,0,0-.22,0c0,.08,0,.17,0,.25a.27.27,0,0,1,.2-.06c.2,0,.3.12.3.37v.7c0,.25-.1.38-.3.38H1.59c0,.07,0,.14,0,.22h0A.53.53,0,0,0,2.06,17.85Z"/><path class="cls-2" d="M28.48,20.5a.7.7,0,0,0,.14-.46v-.65a.71.71,0,0,0-.14-.47.64.64,0,0,0-.84,0,.71.71,0,0,0-.14.47V20a.7.7,0,0,0,.14.46.64.64,0,0,0,.84,0Zm-.72-.44v-.7c0-.25.1-.38.3-.38s.3.13.3.38v.7c0,.25-.1.38-.3.38s-.3-.13-.3-.38Z"/><polygon class="cls-2" points="28.68 16.16 28.45 16.16 27.96 16.35 28.01 16.57 28.42 16.4 28.42 16.4 28.42 17.97 28.68 17.97 28.68 16.16"/><path class="cls-2" d="M5,8.18a.53.53,0,0,0-.42.15.66.66,0,0,0-.14.47v.65a.65.65,0,0,0,.14.46.54.54,0,0,0,.42.16.53.53,0,0,0,.41-.16.66.66,0,0,0,.15-.46V8.8a.67.67,0,0,0-.15-.47A.53.53,0,0,0,5,8.18Zm.3,1.29c0,.25-.1.38-.3.38s-.31-.13-.31-.38v-.7c0-.25.1-.38.31-.38s.3.13.3.38Z"/><polygon class="cls-2" points="2.45 15.32 2.45 13.51 2.22 13.51 1.73 13.71 1.78 13.93 2.19 13.76 2.19 13.76 2.19 15.32 2.45 15.32"/><path class="cls-2" d="M2.51,20v-.65a.66.66,0,0,0-.14-.47A.53.53,0,0,0,2,18.77a.44.44,0,0,0-.16,0,1.6,1.6,0,0,0,.05.21L2,19c.2,0,.31.13.31.38v.7a.78.78,0,0,1,0,.22l.09.27.06-.05A.65.65,0,0,0,2.51,20Z"/><path class="cls-2" d="M3.41,21.44l-.49.2.05.22.41-.17h0v1.12c.08.14.17.28.26.42V21.44Z"/><path class="cls-2" d="M6.08,20.5A.7.7,0,0,0,6.22,20v-.65a.71.71,0,0,0-.14-.47.53.53,0,0,0-.42-.15.51.51,0,0,0-.41.15.67.67,0,0,0-.15.47V20a.66.66,0,0,0,.15.46.52.52,0,0,0,.41.16A.54.54,0,0,0,6.08,20.5Zm-.72-.44v-.7c0-.25.1-.38.3-.38s.3.13.3.38v.7c0,.25-.1.38-.3.38s-.3-.13-.3-.38Z"/><path class="cls-2" d="M26.56,6h0l0,0Z"/><path class="cls-2" d="M25.64,8.18a.53.53,0,0,0-.41.15.67.67,0,0,0-.15.47v.65a.66.66,0,0,0,.15.46.63.63,0,0,0,.83,0,.65.65,0,0,0,.14-.46V8.8a.66.66,0,0,0-.14-.47A.53.53,0,0,0,25.64,8.18ZM26,9.47c0,.25-.1.38-.31.38s-.3-.13-.3-.38v-.7c0-.25.1-.38.3-.38s.31.13.31.38Z"/><path class="cls-2" d="M27.39,8.18a.53.53,0,0,0-.41.15.67.67,0,0,0-.15.47v.65a.66.66,0,0,0,.15.46.63.63,0,0,0,.83,0A.7.7,0,0,0,28,9.45V8.8a.71.71,0,0,0-.14-.47A.53.53,0,0,0,27.39,8.18Zm.3,1.29c0,.25-.1.38-.3.38s-.3-.13-.3-.38v-.7c0-.25.1-.38.3-.38s.3.13.3.38Z"/><path class="cls-2" d="M27.25,23.3a.53.53,0,0,0,.41-.16.66.66,0,0,0,.15-.46V22a.67.67,0,0,0-.15-.47.63.63,0,0,0-.83,0,.61.61,0,0,0-.14.47v.65a.6.6,0,0,0,.14.46A.54.54,0,0,0,27.25,23.3ZM26.94,22c0-.25.1-.38.31-.38s.3.13.3.38v.7c0,.25-.1.38-.3.38s-.31-.13-.31-.38Z"/><path class="cls-2" d="M6.05,5.53a.55.55,0,0,0-.42.15.72.72,0,0,0-.14.47V6.8a.68.68,0,0,0,.14.46.63.63,0,0,0,.84,0,.68.68,0,0,0,.14-.46V6.15a.72.72,0,0,0-.14-.47A.55.55,0,0,0,6.05,5.53Zm.3,1.29c0,.25-.1.38-.3.38s-.3-.13-.3-.38v-.7c0-.25.1-.37.3-.37s.3.12.3.37Z"/><polygon class="cls-2" points="26.03 15.32 26.03 13.51 25.8 13.51 25.31 13.71 25.36 13.93 25.76 13.76 25.77 13.76 25.77 15.32 26.03 15.32"/><path class="cls-2" d="M12.35,29.35a.63.63,0,0,0-.33.09l.83.2a.38.38,0,0,0-.09-.13A.52.52,0,0,0,12.35,29.35Z"/><path class="cls-2" d="M6.94,16.74v.65a.59.59,0,0,0,.14.46.63.63,0,0,0,.83,0,.59.59,0,0,0,.14-.46v-.65a.61.61,0,0,0-.14-.47.65.65,0,0,0-.83,0A.61.61,0,0,0,6.94,16.74Zm.25,0c0-.25.1-.37.3-.37s.31.12.31.37v.7c0,.25-.1.38-.31.38s-.3-.13-.3-.38Z"/><polygon class="cls-2" points="27.5 17.97 27.5 16.16 27.27 16.16 26.79 16.35 26.84 16.57 27.24 16.4 27.25 16.4 27.25 17.97 27.5 17.97"/><path class="cls-2" d="M13.3,2a.63.63,0,0,0,.83,0,.66.66,0,0,0,.15-.46V1.23l-.26,0v.27c0,.25-.1.38-.3.38s-.31-.13-.31-.38V1.35l-.25,0v.12A.65.65,0,0,0,13.3,2Z"/><path class="cls-2" d="M8.18,15.21a.68.68,0,0,0,.15-.47v-.65a.64.64,0,0,0-.15-.46.63.63,0,0,0-.83,0,.63.63,0,0,0-.14.46v.65a.67.67,0,0,0,.14.47A.65.65,0,0,0,8.18,15.21Zm-.72-.44v-.7c0-.26.1-.38.31-.38s.3.12.3.38v.7c0,.25-.1.37-.3.37S7.46,15,7.46,14.77Z"/><path class="cls-2" d="M15.05,2a.63.63,0,0,0,.83,0A.65.65,0,0,0,16,1.51V1.15h-.25v.38c0,.25-.1.38-.31.38s-.3-.13-.3-.38V1.16l-.26,0v.33A.66.66,0,0,0,15.05,2Z"/><path class="cls-2" d="M16.8,2a.63.63,0,0,0,.83,0,.7.7,0,0,0,.14-.46V1.28l-.26,0v.29c0,.25-.1.38-.3.38s-.3-.13-.3-.38V1.19l-.26,0v.34A.66.66,0,0,0,16.8,2Z"/><polygon class="cls-2" points="7.8 8.63 8.2 8.46 8.21 8.46 8.21 10.03 8.46 10.03 8.46 8.21 8.24 8.21 7.75 8.41 7.8 8.63"/><path class="cls-2" d="M27.8,14.74v-.65a.68.68,0,0,0-.14-.46.63.63,0,0,0-.83,0,.64.64,0,0,0-.15.46v.65a.68.68,0,0,0,.15.47.65.65,0,0,0,.83,0A.72.72,0,0,0,27.8,14.74Zm-.26,0c0,.25-.1.37-.3.37s-.3-.12-.3-.37v-.7c0-.26.1-.38.3-.38s.3.12.3.38Z"/><path class="cls-2" d="M24.24,26.94l.05.22.13-.06.47-.36h-.16Z"/><path class="cls-2" d="M4.58,7.38h.25V6.24c-.08.1-.17.2-.25.31Z"/><path class="cls-2" d="M8.05,4.62a.65.65,0,0,0,.83,0A.68.68,0,0,0,9,4.15V3.5A.64.64,0,0,0,8.88,3,.27.27,0,0,0,8.8,3l-.24.14c.14,0,.21.16.21.37v.7c0,.25-.1.37-.3.37s-.3-.12-.3-.37v-.7a.61.61,0,0,1,0-.14l-.27.17v.64A.72.72,0,0,0,8.05,4.62Z"/><polygon class="cls-2" points="4.45 20.62 4.45 18.8 4.22 18.8 3.73 19 3.78 19.22 4.18 19.05 4.19 19.05 4.19 20.62 4.45 20.62"/><path class="cls-2" d="M6.85,20A.7.7,0,0,0,7,20.5a.63.63,0,0,0,.83,0A.66.66,0,0,0,8,20v-.65a.67.67,0,0,0-.15-.47.63.63,0,0,0-.83,0,.71.71,0,0,0-.14.47Zm.26-.68c0-.25.1-.38.3-.38s.3.13.3.38v.7c0,.25-.1.38-.3.38s-.3-.13-.3-.38Z"/><path class="cls-2" d="M8.66,11a.66.66,0,0,0-.15.46v.65a.67.67,0,0,0,.15.47.63.63,0,0,0,.83,0,.71.71,0,0,0,.14-.47v-.65A.7.7,0,0,0,9.49,11,.63.63,0,0,0,8.66,11Zm.71.44v.7c0,.25-.1.38-.3.38s-.3-.13-.3-.38v-.7c0-.25.1-.38.3-.38s.3.13.3.38Z"/><polygon class="cls-2" points="7.81 5.76 7.86 5.99 8.27 5.81 8.27 5.81 8.27 7.38 8.53 7.38 8.53 5.57 8.3 5.57 7.81 5.76"/><path class="cls-2" d="M11.21,2l.06-.09-.64.23.16,0A.54.54,0,0,0,11.21,2Z"/><path class="cls-2" d="M12.5,2.09V1.53l-.26.06v.5Z"/><path class="cls-2" d="M9.12,9.45a.7.7,0,0,0,.14.46.63.63,0,0,0,.83,0,.66.66,0,0,0,.15-.46V8.8a.67.67,0,0,0-.15-.47.63.63,0,0,0-.83,0,.71.71,0,0,0-.14.47Zm.26-.68c0-.25.1-.38.3-.38s.3.13.3.38v.7c0,.25-.1.38-.3.38s-.3-.13-.3-.38Z"/><polygon class="cls-2" points="26.03 11.06 26.08 11.28 26.48 11.11 26.49 11.11 26.49 12.68 26.75 12.68 26.75 10.86 26.52 10.86 26.03 11.06"/><path class="cls-2" d="M29.15,11.44v.65a.71.71,0,0,0,.14.47.53.53,0,0,0,.42.15.91.91,0,0,0,.23,0c0-.08,0-.16-.05-.23a.41.41,0,0,1-.18.05c-.2,0-.3-.13-.3-.38v-.7a.4.4,0,0,1,.11-.32c0-.08-.05-.15-.07-.23a.57.57,0,0,0-.16.11A.7.7,0,0,0,29.15,11.44Z"/><path class="cls-2" d="M7.89,26.86a.63.63,0,0,0-.83,0L7,26.93l.21.16a.26.26,0,0,1,.27-.17c.2,0,.3.12.3.38v.19l.26.17v-.34A.64.64,0,0,0,7.89,26.86Z"/><path class="cls-2" d="M7.32,10.82a.53.53,0,0,0-.41.16.66.66,0,0,0-.15.46v.65a.67.67,0,0,0,.15.47.63.63,0,0,0,.83,0,.66.66,0,0,0,.14-.47v-.65A.65.65,0,0,0,7.74,11,.54.54,0,0,0,7.32,10.82Zm.31,1.3c0,.25-.11.38-.31.38s-.3-.13-.3-.38v-.7c0-.25.1-.38.3-.38s.31.13.31.38Z"/><path class="cls-2" d="M29.33,16.74v.65a.64.64,0,0,0,.15.46.53.53,0,0,0,.41.16H30a2.17,2.17,0,0,0,0-.25.27.27,0,0,1-.16,0c-.2,0-.3-.13-.3-.38v-.7c0-.25.1-.37.3-.37a.26.26,0,0,1,.29.25h0l0-.4a.6.6,0,0,0-.32-.07.53.53,0,0,0-.41.15A.67.67,0,0,0,29.33,16.74Z"/><path class="cls-2" d="M15.27,29.35a.53.53,0,0,0-.41.16.63.63,0,0,0-.14.4H15c0-.23.11-.35.3-.35s.3.13.31.37h.25a.63.63,0,0,0-.14-.44A.54.54,0,0,0,15.27,29.35Z"/><polygon class="cls-2" points="6.56 23.26 6.56 21.44 6.34 21.44 5.85 21.64 5.9 21.86 6.3 21.69 6.31 21.69 6.31 23.26 6.56 23.26"/><path class="cls-2" d="M6.75,8.18a.53.53,0,0,0-.41.15.67.67,0,0,0-.15.47v.65a.66.66,0,0,0,.15.46.53.53,0,0,0,.41.16.54.54,0,0,0,.42-.16.65.65,0,0,0,.14-.46V8.8a.66.66,0,0,0-.14-.47A.53.53,0,0,0,6.75,8.18Zm.31,1.29c0,.25-.1.38-.31.38s-.3-.13-.3-.38v-.7c0-.25.1-.38.3-.38s.31.13.31.38Z"/><path class="cls-2" d="M5.94,24.08H5.71l-.49.2.06.22.4-.17h0v1.45l.13.12h.13Z"/><path class="cls-2" d="M8.19,23.14a.66.66,0,0,0,.15-.46V22a.67.67,0,0,0-.15-.47.63.63,0,0,0-.83,0,.71.71,0,0,0-.14.47v.65a.7.7,0,0,0,.14.46A.63.63,0,0,0,8.19,23.14Zm-.71-.44V22c0-.25.1-.38.3-.38s.3.13.3.38v.7c0,.25-.1.38-.3.38s-.3-.13-.3-.38Z"/><path class="cls-2" d="M24,4.62a.65.65,0,0,0,.83,0,.56.56,0,0,0,.11-.2l-.23-.18c0,.21-.11.31-.3.31s-.3-.12-.3-.37V3.79l-.26-.18v.54A.68.68,0,0,0,24,4.62Z"/><path class="cls-2" d="M9.78,28v-.65a.59.59,0,0,0-.14-.46.63.63,0,0,0-.83,0,.64.64,0,0,0-.15.46V28s0,.05,0,.08l.29.16a.52.52,0,0,1,0-.21v-.7c0-.26.1-.38.3-.38s.31.12.31.38V28c0,.23-.09.36-.27.37l.28.14.1-.07A.63.63,0,0,0,9.78,28Z"/><path class="cls-2" d="M6.6,24.67v.65a.63.63,0,0,0,.14.46.54.54,0,0,0,.42.16.53.53,0,0,0,.41-.16.64.64,0,0,0,.15-.46v-.65a.67.67,0,0,0-.15-.47.53.53,0,0,0-.41-.15.53.53,0,0,0-.42.15A.66.66,0,0,0,6.6,24.67Zm.26,0c0-.25.1-.37.3-.37s.3.12.3.37v.7c0,.25-.1.38-.3.38s-.3-.13-.3-.38Z"/><path class="cls-2" d="M20.1,2.09v-.3l-.26-.08v.38Z"/><path class="cls-2" d="M27,7.38h.26V6.75L27,6.42Z"/><path class="cls-2" d="M28.72,9.91a.56.56,0,0,0,.42.16h0a2.44,2.44,0,0,0-.1-.24c-.13,0-.2-.15-.2-.36V9.38c-.08-.17-.17-.35-.26-.51v.58A.7.7,0,0,0,28.72,9.91Z"/><path class="cls-2" d="M18.92,2.09V1.48l-.26-.05v.66Z"/><path class="cls-3" d="M15.16,23.2l-3.74-5S7.2,20.58,7.21,20.54l3.92-7.16a0,0,0,0,1,0,0h0l2.7,2.8a0,0,0,0,0,0,0s0,0,0,0l-.94-4,2.88-6.82,2.8,6.82h0l-.94,4s0,0,0,0h0l2.69-2.8s0,0,.05,0,0,0,0,0l3.93,7.16s0,0,0,.05a0,0,0,0,1,0,0l-4.11-2.44s-3.78,5.05-3.78,5.05l-.69,1Z"/><circle class="cls-4" cx="15.85" cy="15.56" r="15.55"/><circle class="cls-5" cx="15.88" cy="15.55" r="14.42"/><path class="cls-6" d="M15.85,24.23l-.69-1-3.74-5S7.2,20.58,7.21,20.54l3.92-7.16a0,0,0,0,1,0,0h0l2.7,2.8a0,0,0,0,0,0,0s0,0,0,0l-.94-4,2.88-6.82Z"/></g></svg>