<svg xmlns="http://www.w3.org/2000/svg" width="14.625" height="13.5" viewBox="0 0 14.625 13.5"><defs><style>.a{fill:#201961;}</style></defs><g transform="translate(-3.375 -4.5)"><path class="a" d="M16.594,6.75H15.188v.844a.282.282,0,0,1-.281.281h-.562a.282.282,0,0,1-.281-.281V6.75H7.313v.844a.282.282,0,0,1-.281.281H6.469a.282.282,0,0,1-.281-.281V6.75H4.781A1.41,1.41,0,0,0,3.375,8.156v9.563a1.41,1.41,0,0,0,1.406,1.406H16.594A1.41,1.41,0,0,0,18,17.719V8.156A1.41,1.41,0,0,0,16.594,6.75ZM16.875,17.3a.705.705,0,0,1-.7.7H5.2a.705.705,0,0,1-.7-.7V10.969a.282.282,0,0,1,.281-.281H16.594a.282.282,0,0,1,.281.281Z" transform="translate(0 -1.125)"/><path class="a" d="M10.125,4.781A.282.282,0,0,0,9.844,4.5H9.281A.282.282,0,0,0,9,4.781v.844h1.125Z" transform="translate(-2.813)"/><path class="a" d="M25.875,4.781a.282.282,0,0,0-.281-.281h-.562a.282.282,0,0,0-.281.281v.844h1.125Z" transform="translate(-10.688)"/></g></svg>