<svg xmlns="http://www.w3.org/2000/svg" width="31.406" height="31.406" viewBox="0 0 31.406 31.406"><defs><style>.a{fill:none;}.b{fill:#fff;}.c{fill:#00962a;}</style></defs><g transform="translate(0 0)"><path class="a" d="M32.4,16.73a15.7,15.7,0,1,1-15.7-15.7,15.7,15.7,0,0,1,15.7,15.7Z" transform="translate(-0.992 -1.028)"/><path class="b" d="M16.7,32.434a15.7,15.7,0,1,1,0-31.406h0V32.434Z" transform="translate(-0.992 -1.028)"/><path class="c" d="M299.516,1.028a15.7,15.7,0,0,1,0,31.406V1.028Z" transform="translate(-283.812 -1.028)"/><path class="c" d="M44.383,178.866l4.323,6.475-4.7,6.792,3.12-6.792Z" transform="translate(-41.745 -169.511)"/><path class="b" d="M470.02,178.866l-4.323,6.475,4.7,6.792-3.12-6.792Z" transform="translate(-441.251 -169.511)"/><path class="b" d="M323.054,447.27l-8.654-.14-3.439,6.418,4.72-5.624Z" transform="translate(-294.655 -423.662)"/><path class="c" d="M58.181,447.27l8.653-.14,3.439,6.418-4.72-5.624Z" transform="translate(-55.173 -423.662)"/><path class="b" d="M323.054,33.382l-8.654.142-3.439-6.418,4.72,5.622Z" transform="translate(-294.655 -25.734)"/><path class="c" d="M58.181,33.382l8.653.142,3.439-6.418-4.72,5.622Z" transform="translate(-55.173 -25.734)"/><path class="c" d="M141.607,77.457l-3.338,7.87,1.351,4.884-3.21-4.58-3.571,6.736,3.409-2.444,3.359,3.754-2.641-.9-1.281,2.544,2.285-.818,1.972,2,1.665,2.662Z" transform="translate(-125.903 -73.436)"/><path class="b" d="M299.516,77.457l3.336,7.87L301.5,90.21l3.208-4.58,3.571,6.736-3.409-2.444-3.359,3.754,2.641-.9,1.281,2.544-2.285-.818-1.972,2-1.663,2.662Z" transform="translate(-283.812 -73.436)"/></g></svg>