<?xml version="1.0" encoding="utf-8"?>
<!-- Generator: Adobe Illustrator 25.4.1, SVG Export Plug-In . SVG Version: 6.00 Build 0)  -->
<svg version="1.1" id="Layer_1" xmlns="http://www.w3.org/2000/svg" xmlns:xlink="http://www.w3.org/1999/xlink" x="0px" y="0px"
	 viewBox="0 0 16.2 16.2" style="enable-background:new 0 0 16.2 16.2;" xml:space="preserve">
<style type="text/css">
	.st0{fill:#201961;}
</style>
<path class="st0" d="M8.1,0C3.6,0,0,3.6,0,8.1c0,4.5,3.6,8.1,8.1,8.1c4.5,0,8.1-3.6,8.1-8.1C16.2,3.6,12.5,0,8.1,0z M7.9,1.6
	c0.1,0,0.1,0,0.2,0s0.1,0,0.2,0c1.9,0.1,3.3,1.7,3.2,3.6C11.4,7,9.8,8.4,7.9,8.3S4.6,6.6,4.7,4.8C4.8,3,6.2,1.7,7.9,1.6L7.9,1.6z
	 M1.8,9.9C1.2,7.7,1.7,5.3,3.3,3.7c-0.4,1.6-0.1,3.2,1,4.5C3.4,8.6,2.5,9.1,1.8,9.9L1.8,9.9z M8.1,14.6c-3.8,0-5.9-2.8-5.9-2.8
	s-0.2,0,0.9-1.3c0.6-0.7,1.5-1.2,2.5-1.2c1.5,0.9,3.4,0.9,4.9,0c1.2,0.4,2.3,1.2,3.1,2.2C12.5,13.4,10.3,14.6,8.1,14.6L8.1,14.6z
	 M14.3,9.9c-0.7-0.7-1.5-1.3-2.5-1.8c1-1.2,1.4-2.9,1-4.5C14.4,5.3,15,7.7,14.3,9.9z"/>
</svg>
