<?xml version="1.0" standalone="no"?>
<!DOCTYPE svg PUBLIC "-//W3C//DTD SVG 20010904//EN"
 "http://www.w3.org/TR/2001/REC-SVG-20010904/DTD/svg10.dtd">
<svg version="1.0" xmlns="http://www.w3.org/2000/svg"
 width="494.000000pt" height="505.000000pt" viewBox="0 0 494.000000 505.000000"
 preserveAspectRatio="xMidYMid meet">

<g transform="translate(0.000000,505.000000) scale(0.100000,-0.100000)"
fill="#fcba03" stroke="none">
<path d="M2379 4684 c-118 -42 -196 -121 -305 -308 -42 -72 -89 -151 -104
-176 -15 -25 -40 -67 -55 -95 -15 -27 -39 -70 -53 -95 -24 -43 -226 -388 -291
-498 -17 -29 -31 -55 -31 -57 0 -2 -61 -109 -137 -237 -75 -128 -150 -258
-166 -288 -17 -30 -91 -158 -165 -285 -74 -126 -138 -239 -143 -250 -5 -11
-19 -36 -30 -55 -86 -144 -309 -528 -340 -585 -12 -22 -68 -119 -125 -216 -57
-96 -104 -181 -104 -187 0 -7 -4 -12 -9 -12 -5 0 -11 -8 -14 -17 -4 -10 -18
-38 -33 -63 -239 -408 -238 -407 -239 -555 0 -102 2 -113 28 -157 54 -92 127
-146 252 -185 58 -17 145 -18 2160 -18 l2100 0 72 23 c205 65 304 217 267 410
-8 43 -29 109 -48 147 -26 56 -160 292 -206 365 -5 8 -27 47 -48 85 -21 39
-84 149 -141 245 -108 184 -135 230 -184 320 -16 30 -33 60 -37 65 -13 17
-235 400 -293 505 -17 30 -82 142 -144 248 -62 106 -113 196 -113 199 0 4 -6
14 -14 22 -7 9 -28 43 -46 76 -32 59 -73 130 -204 353 -36 62 -66 115 -66 118
0 3 -13 24 -28 47 -15 23 -34 55 -42 72 -15 29 -251 436 -270 465 -6 8 -19 33
-30 55 -11 22 -24 47 -30 55 -5 8 -44 73 -86 145 -41 71 -96 154 -122 184
-105 123 -263 179 -383 135z m142 -662 c17 -31 41 -73 52 -92 11 -19 31 -55
45 -80 13 -25 39 -70 57 -100 18 -30 71 -120 118 -200 76 -130 102 -175 136
-236 5 -11 71 -123 145 -251 75 -128 136 -236 136 -241 0 -5 13 -26 30 -48 16
-21 30 -43 30 -48 0 -7 214 -379 250 -436 6 -8 15 -26 21 -40 6 -14 21 -38 33
-55 12 -16 25 -38 29 -47 5 -15 220 -386 247 -428 6 -8 14 -24 19 -35 5 -11
46 -83 91 -160 160 -271 390 -675 390 -685 0 -7 -655 -10 -1875 -10 -1136 0
-1875 4 -1875 9 0 5 23 49 52 98 28 48 61 106 72 128 12 22 24 42 29 43 4 2 7
8 7 12 0 5 70 129 155 275 85 146 155 268 155 271 0 2 11 21 24 42 26 42 260
443 298 512 49 88 71 127 154 268 47 78 87 150 91 160 3 9 12 24 19 33 13 15
45 69 82 139 10 19 66 117 125 217 59 99 107 184 107 188 0 3 11 21 24 38 14
18 29 43 35 57 6 14 15 32 20 40 10 15 242 417 263 454 6 11 22 40 35 65 14
25 32 53 39 62 8 8 14 18 14 22 0 16 72 127 80 122 4 -3 23 -31 41 -63z"/>
<path d="M2114 3018 c3 -35 15 -162 27 -283 11 -121 27 -285 34 -365 8 -80 21
-216 29 -302 8 -86 18 -173 22 -193 l6 -35 239 0 c131 0 240 4 243 9 3 5 13
82 22 172 9 90 22 223 29 294 8 72 23 225 34 340 12 116 26 244 31 285 5 41 9
90 10 108 l0 32 -366 0 -367 0 7 -62z"/>
<path d="M2230 1340 l0 -240 240 0 240 0 0 240 0 240 -240 0 -240 0 0 -240z"/>
</g>
</svg>
