<svg xmlns="http://www.w3.org/2000/svg" width="17.952" height="17.952" viewBox="0 0 17.952 17.952"><defs><style>.a{fill:#a7abbd;}</style></defs><path class="a" d="M156.812,153.072a3.74,3.74,0,1,1-3.74-3.74A3.74,3.74,0,0,1,156.812,153.072Zm0,0" transform="translate(-144.096 -144.096)"/><path class="a" d="M17.2,8.228h-.786A7.492,7.492,0,0,0,9.724,1.534V.748a.748.748,0,1,0-1.5,0v.786A7.492,7.492,0,0,0,1.534,8.228H.748a.748.748,0,0,0,0,1.5h.786a7.492,7.492,0,0,0,6.694,6.694V17.2a.748.748,0,1,0,1.5,0v-.786a7.492,7.492,0,0,0,6.694-6.694H17.2a.748.748,0,0,0,0-1.5ZM9.714,14.91a.739.739,0,0,0-1.475,0,5.99,5.99,0,0,1-5.2-5.2.739.739,0,0,0,0-1.476,5.99,5.99,0,0,1,5.2-5.2.739.739,0,0,0,1.476,0,5.99,5.99,0,0,1,5.2,5.2.739.739,0,0,0,0,1.476,5.991,5.991,0,0,1-5.2,5.2Zm0,0" transform="translate(0 0)"/></svg>