<svg xmlns="http://www.w3.org/2000/svg" width="41.566" height="31.584" viewBox="0 0 41.566 31.584"><defs><style>.a{fill:#201961;stroke:#201961;stroke-width:0.2px;}</style></defs><g transform="translate(0.1 0.1)"><path class="a" d="M39.689,69.885H36.415V65.652a.754.754,0,0,0-.8-.8H21.482V61.42h3.274a1.638,1.638,0,0,0,1.677-1.677V51.677A1.638,1.638,0,0,0,24.756,50H16.61a1.638,1.638,0,0,0-1.677,1.677v8.145A1.638,1.638,0,0,0,16.61,61.5h3.274v3.354H5.75a.754.754,0,0,0-.8.8v4.232H1.677A1.638,1.638,0,0,0,0,71.562v8.145a1.638,1.638,0,0,0,1.677,1.677H9.822A1.638,1.638,0,0,0,11.5,79.707V71.562a1.638,1.638,0,0,0-1.677-1.677H6.548V66.451H19.885v3.434H16.61a1.638,1.638,0,0,0-1.677,1.677v8.145a1.638,1.638,0,0,0,1.677,1.677h8.145a1.638,1.638,0,0,0,1.677-1.677V71.562a1.638,1.638,0,0,0-1.677-1.677H21.482V66.451H34.818v3.434H31.544a1.638,1.638,0,0,0-1.677,1.677v8.145a1.638,1.638,0,0,0,1.677,1.677h8.145a1.638,1.638,0,0,0,1.677-1.677V71.562A1.687,1.687,0,0,0,39.689,69.885ZM9.9,71.562c-.08-.08,0-.08,0,0v8.145c0,.08,0,.08-.08.08H1.677c-.08,0-.08,0-.08-.08V71.562c0-.08,0-.08.08-.08Zm14.933,0c-.08-.08,0-.08,0,0v8.145c0,.08,0,.08-.08.08H16.61c-.08,0-.08,0-.08-.08V71.562c0-.08,0-.08.08-.08ZM16.531,59.743c.08.08,0,.08,0,0V51.677c0-.08,0-.08.08-.08h8.145c.08,0,.08,0,.08.08v8.145c0,.08,0,.08-.08.08ZM39.769,79.627c0,.08-.08.08,0,0l-8.225.08c-.08,0-.08,0-.08-.08V71.562c0-.08,0-.08.08-.08h8.145c.08,0,.08,0,.08.08Z" transform="translate(0 -50)"/></g></svg>