<svg xmlns="http://www.w3.org/2000/svg" width="27.733" height="26" viewBox="0 0 27.733 26"><defs><style>.a{fill:#00aac0;}</style></defs><g transform="translate(0 -15.995)"><g transform="translate(0 19.462)"><path class="a" d="M21.666,92.138A.867.867,0,0,0,20.8,93v7.8H1.733V81.738h7.8a.867.867,0,0,0,0-1.733H.867A.867.867,0,0,0,0,80.872v20.8a.867.867,0,0,0,.867.867h20.8a.867.867,0,0,0,.867-.867V93A.867.867,0,0,0,21.666,92.138Z" transform="translate(0 -80.005)"/></g><g transform="translate(6.933 15.995)"><path class="a" d="M148.5,22.277l-6.933-6.067a.866.866,0,0,0-1.437.652v2.6h-.513a11.322,11.322,0,0,0-11.154,9.674l-.458,3.2a.866.866,0,0,0,.562.936.883.883,0,0,0,.3.052.865.865,0,0,0,.735-.407l1.277-2.045a9.485,9.485,0,0,1,8.086-4.481h1.168V29a.866.866,0,0,0,1.437.652L148.5,23.58a.865.865,0,0,0,0-1.3Zm-6.637,4.808V25.528a.867.867,0,0,0-.867-.867h-2.035a11.193,11.193,0,0,0-8.665,4.061,9.587,9.587,0,0,1,9.32-7.528H141a.867.867,0,0,0,.867-.867V18.772l4.751,4.156Z" transform="translate(-128.001 -15.995)"/></g></g></svg>