<svg xmlns="http://www.w3.org/2000/svg" width="22.409" height="22" viewBox="0 0 22.409 22"><defs><style>.a{fill:#201961;}</style></defs><path class="a" d="M21.992,3.02H14.485V4.41H16.7v2.2H14.485v.7H16.7v2.2H14.485v.72H16.7V12.31H14.485v.834H16.7V15.23H14.485v.834H16.7v2.1H14.485v1.53h7.507c.119-.035.218-.176.3-.418a2.047,2.047,0,0,0,.12-.594V3.274c0-.12-.041-.191-.12-.217A1.027,1.027,0,0,0,21.992,3.02ZM21.018,18.16h-3.6v-2.1h3.6v2.1Zm0-2.93h-3.6V13.143h3.6Zm0-2.921h-3.6V10.237h3.6v2.072Zm0-2.8h-3.6V7.31h3.6v2.2h0Zm0-2.912h-3.6V4.411h3.6V6.6ZM0,2.674V20.042l13.221,2.287v-22L0,2.681ZM7.837,15.812q-.076-.2-.708-1.74c-.419-1.023-.672-1.619-.746-1.789H6.36L4.941,15.659l-1.9-.128,2.248-4.2-2.059-4.2,1.933-.1,1.277,3.288h.025L7.913,6.877l2-.126L7.532,11.3l2.451,4.639L7.837,15.81Z" transform="translate(0 -0.328)"/></svg>