<svg xmlns="http://www.w3.org/2000/svg" width="26" height="26" viewBox="0 0 26 26"><defs><style>.a{fill:#3fbc9d;}</style></defs><path class="a" d="M22.191,6.551H21.48V3.809A3.813,3.813,0,0,0,17.672,0H8.328A3.813,3.813,0,0,0,4.52,3.809V6.551H3.809A3.813,3.813,0,0,0,0,10.359v6.094a3.813,3.813,0,0,0,3.809,3.809H4.52v3.453A2.288,2.288,0,0,0,6.8,26H19.2a2.288,2.288,0,0,0,2.285-2.285V20.262h.711A3.813,3.813,0,0,0,26,16.453V10.359A3.813,3.813,0,0,0,22.191,6.551ZM6.043,3.809A2.288,2.288,0,0,1,8.328,1.523h9.344a2.288,2.288,0,0,1,2.285,2.285V6.551H6.043ZM19.957,23.715a.763.763,0,0,1-.762.762H6.8a.763.763,0,0,1-.762-.762V16.2H19.957Zm4.52-7.262a2.288,2.288,0,0,1-2.285,2.285H21.48V16.2h.457a.762.762,0,0,0,0-1.523H4.063a.762.762,0,0,0,0,1.523H4.52v2.539H3.809a2.288,2.288,0,0,1-2.285-2.285V10.359A2.288,2.288,0,0,1,3.809,8.074H22.191a2.288,2.288,0,0,1,2.285,2.285Z"/><path class="a" d="M205.824,353h-4.062a.762.762,0,0,0,0,1.523h4.063a.762.762,0,0,0,0-1.523Z" transform="translate(-190.793 -335.074)"/><path class="a" d="M205.824,417h-4.062a.762.762,0,0,0,0,1.523h4.063a.762.762,0,0,0,0-1.523Z" transform="translate(-190.793 -395.824)"/><path class="a" d="M68.2,193H65.762a.762.762,0,0,0,0,1.523H68.2a.762.762,0,0,0,0-1.523Z" transform="translate(-61.699 -183.199)"/></svg>