<svg xmlns="http://www.w3.org/2000/svg" width="13.333" height="11.666" viewBox="0 0 13.333 11.666"><defs><style>.a{fill:#201961;}</style></defs><path class="a" d="M13.333,5.167v7.5a1.25,1.25,0,0,1-1.25,1.25H1.25A1.25,1.25,0,0,1,0,12.666v-7.5a1.25,1.25,0,0,1,1.25-1.25H3.542l.32-.857a1.248,1.248,0,0,1,1.169-.81H8.3a1.248,1.248,0,0,1,1.169.81l.323.857h2.292A1.25,1.25,0,0,1,13.333,5.167ZM9.791,8.917a3.125,3.125,0,1,0-3.125,3.125A3.127,3.127,0,0,0,9.791,8.917Zm-.833,0A2.292,2.292,0,1,1,6.667,6.625,2.295,2.295,0,0,1,8.958,8.917Z" transform="translate(0 -2.25)"/></svg>